<svg xmlns="http://www.w3.org/2000/svg" xmlns:xlink="http://www.w3.org/1999/xlink" width="30" height="30"
     viewBox="0 0 30 30">
    <defs>
        <path id="a"
              d="M12 6l-1.83 2H7c-1.1 0-2 .9-2 2v12c0 1.1.9 2 2 2h16c1.1 0 2-.9 2-2V10c0-1.1-.9-2-2-2h-3.17L18 6h-6zm3 15c-2.76 0-5-2.24-5-5s2.24-5 5-5 5 2.24 5 5-2.24 5-5 5zm0-1.8a3.2 3.2 0 1 0 0-6.4 3.2 3.2 0 0 0 0 6.4z"/>
    </defs>
    <g fill="none" fill-rule="evenodd">
        <mask id="b" fill="#fff">
            <use xlink:href="#a"/>
        </mask>
        <g fill="#a9a9a9" mask="url(#b)">
            <path d="M2 2h26v26H2z"/>
        </g>
    </g>
</svg>
