<svg xmlns="http://www.w3.org/2000/svg" xmlns:xlink="http://www.w3.org/1999/xlink" width="30" height="30"
     viewBox="0 0 30 30">
    <defs>
        <path id="a"
              d="M25.891 10.1c.4 2.595-.436 5.328-1.971 7.39-.386.488-.822.94-1.082 1.514-.696 2.32-.678 5.381-.4 6.963h-7.237a9.147 9.147 0 0 0-.193-2.908c-.108-.47-.279-.977-.647-1.255-.575-.452-1.36-.188-2.056-.085s-1.639-.193-1.657-.959c-.031-.61.561-1.272.193-1.725-.121-.157-.35-.224-.435-.417-.193-.403.332-.784.417-1.236.17-1.013-1.746-1.152-1.728-2.16 0-.99 2.146-.878 2.146-4.283.072-1.165.036-2.384.471-3.464.835-2.039 3.085-2.872 5.11-3.221 1.53-.283 3.138-.422 4.62.085 2.32.784 4.045 3.15 4.449 5.762zM4.96 21.348c.246-.09.489.032.574.278a.443.443 0 0 1-.26.574l-.665.224a.448.448 0 0 1-.556-.278.443.443 0 0 1 .26-.574l.647-.224zm3.488-1.254c.247-.072.49.053.557.277a.443.443 0 0 1-.26.574l-.665.224a.326.326 0 0 1-.26 0 .494.494 0 0 1-.211.157l-1.415.506c-.296.072-.485-.085-.556-.278a.443.443 0 0 1 .26-.573l1.414-.507a.637.637 0 0 1 .26 0 .494.494 0 0 1 .212-.156l.664-.224zm.157-1.587c.247 0 .436.193.436.453s-.193.453-.436.453H7.91a.448.448 0 0 1-.435-.453c0-.26.193-.453.435-.453h.696zm-1.185.44a.449.449 0 0 1-.44.452H5.602c-.086 0-.153-.036-.225-.072a.337.337 0 0 1-.224.072h-.696a.448.448 0 0 1-.436-.452c0-.26.193-.453.436-.453h.7c.085 0 .153.036.225.072a.337.337 0 0 1 .224-.072h1.378c.243 0 .436.21.436.453zm-2.46-2.398l-.642-.224a.443.443 0 0 1-.26-.573.448.448 0 0 1 .556-.278l.664.224c.225.085.35.332.26.574a.447.447 0 0 1-.578.277zm3.488 1.224l-.664-.224a.494.494 0 0 1-.211-.157.637.637 0 0 1-.26 0l-1.415-.507a.443.443 0 0 1-.26-.573c.071-.193.26-.35.556-.278l1.415.506a.494.494 0 0 1 .21.157.326.326 0 0 1 .261 0l.664.224c.225.085.35.332.26.574-.066.224-.309.345-.556.278z"/>
    </defs>
    <g fill="none" fill-rule="evenodd">
        <mask id="b" fill="#fff">
            <use xlink:href="#a"/>
        </mask>
        <use fill="rgb(92, 184, 186)" fill-rule="nonzero" xlink:href="#a"/>
        <g fill="rgb(92, 184, 186)" mask="url(#b)">
            <path d="M0 2h30v26H0z"/>
        </g>
    </g>
</svg>
