<svg xmlns="http://www.w3.org/2000/svg" width="154" height="40" viewBox="0 0 154 40">
    <g fill="none" fill-rule="evenodd">
        <g>
            <g transform="translate(-20 -585) translate(20 585)">
                <rect width="154" height="40" fill="#18A8AA" rx="20"/>
                <path fill="#FFF" d="M44.38 8c.007.09.016.175.02.262.039 1.078-.302 2.136-.962 2.989-.406.558-.906 1.04-1.478 1.425-.417.283-.885.483-1.377.59-.295.06-.597.08-.897.064l-.054-.008c-.03-.216-.037-.434-.021-.65.093-1.098.55-2.132 1.299-2.94.569-.634 1.284-1.119 2.082-1.414.418-.169.858-.275 1.306-.313.023-.001.05-.002.083-.005zm4.21 7.596c-.132.087-.262.17-.385.257-.604.403-1.115.93-1.5 1.545-.305.5-.506 1.056-.591 1.635-.126.79-.07 1.6.161 2.367.257.813.73 1.542 1.367 2.108.449.417.966.754 1.53.995l.037.018c-.025.07-.05.137-.073.206-.452 1.277-1.107 2.473-1.94 3.541-.308.42-.646.817-1.01 1.189-.32.326-.695.595-1.107.794-.498.233-1.054.31-1.596.221-.502-.09-.992-.235-1.462-.434-.475-.194-.975-.323-1.485-.384-.523-.054-1.051-.018-1.562.106-.42.107-.831.243-1.232.408-.396.156-.808.27-1.228.34-.514.08-1.04-.008-1.5-.251-.505-.275-.956-.639-1.332-1.074-1.548-1.683-2.664-3.717-3.253-5.926-.165-.608-.285-1.228-.357-1.854-.075-.633-.091-1.27-.05-1.906.054-1.009.319-1.995.777-2.895.421-.83 1.032-1.55 1.782-2.1.737-.543 1.595-.898 2.5-1.037.322-.054.65-.073.976-.058.364.02.724.085 1.072.192.399.122.793.259 1.188.394.396.136.785.271 1.19.37.23.046.469.025.686-.061.585-.192 1.168-.394 1.752-.589.555-.192 1.132-.315 1.718-.366.316-.02.634-.007.949.036.47.054.935.157 1.385.305 1.036.334 1.937.992 2.572 1.875.008.01.014.02.02.03v.003zm67.82-3.998c.262-.272.397-.643.37-1.021.026-.38-.109-.754-.37-1.03-.319-.266-.729-.396-1.142-.362h-.562v2.764h.64c.388.026.77-.101 1.066-.354l-.002.003zm.74-2.707c.445.432.681 1.036.646 1.656.032.623-.196 1.231-.63 1.679-.535.452-1.226.673-1.924.617h-1.545V8.296h1.597c.672-.045 1.335.168 1.855.595zm-6.514.759l-.57 1.32h1.132l-.562-1.32zM112 12.843l-.42-.981h-1.894l-.42.981h-1.074l1.952-4.547h.98l1.951 4.547H112zm-6.41.045c-.631.016-1.24-.228-1.688-.673-.913-.93-.913-2.42 0-3.35.946-.897 2.429-.897 3.375 0 .914.93.914 2.42 0 3.35-.447.446-1.057.69-1.687.674zm.961-3.381c-.241-.274-.589-.43-.953-.43-.365 0-.712.156-.954.43-.517.593-.517 1.478 0 2.07.243.272.59.427.954.427s.71-.155.953-.426c.516-.594.514-1.478-.005-2.07l.005-.001zm-6.72 3.336V8.296h1.004v3.643h1.923v.904h-2.935.008zm-2.222-4.547h1.008v4.547h-1.013l-2.152-2.849v2.85h-1.009V8.295h.945l2.211 2.928V8.296h.01zm-8.44 2.616l.801-2.616h1.058l.795 2.616.9-2.616h1.092l-1.578 4.547h-.758l-.99-3.161-.982 3.161h-.75L87.18 8.297h1.092l.896 2.615zm-4.665 1.976c-.63.015-1.24-.228-1.688-.673-.912-.93-.912-2.42 0-3.35.946-.897 2.43-.897 3.375 0 .914.93.914 2.42 0 3.35-.448.447-1.06.69-1.692.674h.005zm.961-3.381c-.241-.274-.588-.43-.953-.43s-.712.156-.953.43c-.517.594-.517 1.477 0 2.07.243.272.59.427.953.427.364 0 .71-.155.953-.426.515-.596.51-1.48-.01-2.07l.01-.001zm-5.43 2.087c.263-.272.398-.643.372-1.02.025-.381-.11-.755-.372-1.032-.319-.265-.729-.395-1.142-.361h-.561v2.764h.64c.383.024.76-.101 1.053-.35h.01zm.74-2.703c.445.432.681 1.037.646 1.656.033.623-.196 1.231-.63 1.679-.534.451-1.225.673-1.923.617h-1.545V8.296h1.596c.669-.042 1.329.17 1.846.595h.01zm-6.33-.595v.905h-2.25v.94h2.02v.866h-2.02v.943h2.32v.898h-3.328V8.301h3.258v-.005zm-4.327 0v.905h-2.264v.94h2.02v.866h-2.02v.943h2.32v.898h-3.329V8.301h3.259l.014-.005zm-5.608 2.05c.136-.144.204-.34.186-.537.023-.19-.049-.378-.192-.504-.209-.11-.444-.157-.679-.137h-.77v1.346h.738c.248.027.497-.032.705-.168h.012zm1.215-.54c.072.612-.283 1.195-.86 1.411l1.144 1.626h-1.242l-1.002-1.45h-.71v1.45h-1.007V8.296h1.713c.526-.046 1.053.08 1.503.358.322.292.489.72.45 1.153l.011-.001zm-4.615-1.51v.892h-2.095v.982h1.99v.89h-1.99v1.783h-1.008V8.296h3.103zm56.02 16.48h3.943c.031-.506-.168-.999-.542-1.34-.373-.316-.85-.483-1.339-.469-.517-.003-1.021.169-1.428.489-.422.306-.664.8-.65 1.32h.017zm5.391 1.145h-5.39c.026.49.28.94.684 1.216 1.073.732 2.517.581 3.414-.357l.827.91c-.758.778-1.811 1.197-2.896 1.154-.946.024-1.86-.347-2.52-1.025-.66-.678-1.007-1.601-.957-2.546-.047-.974.33-1.92 1.033-2.596.656-.628 1.53-.973 2.438-.962.873-.022 1.724.282 2.386.852.666.594 1.027 1.457.981 2.348v1.006zm-7.936-2.732c-.621-.041-1.224.22-1.617.703-.387.55-.578 1.215-.543 1.887v2.966h-1.442v-6.923h1.442v1.396c.228-.426.554-.792.951-1.066.372-.268.815-.417 1.273-.429l.014 1.47h-.078v-.004zm-8.87 5.66c-.967.027-1.903-.348-2.585-1.035-1.38-1.404-1.38-3.655 0-5.06 1.448-1.379 3.723-1.379 5.171 0 1.38 1.405 1.38 3.656 0 5.06-.683.689-1.621 1.063-2.59 1.035h.004zm0-1.3c.585.017 1.15-.212 1.558-.632.821-.935.821-2.334 0-3.269-.868-.841-2.247-.841-3.115 0-.821.935-.821 2.334 0 3.27.407.417.97.644 1.553.627l.004.003zm-6.787-4.555v3.514c-.015.285.077.565.259.786.185.201.45.309.724.293.348-.018.673-.184.892-.455l.594 1.028c-.453.437-1.057.684-1.687.689-.592.01-1.162-.223-1.577-.644-.45-.463-.686-1.092-.653-1.737v-3.474h-.865v-1.17h.865V19.65h1.448v2.172h1.81v1.171h-1.81zm-8.077-1.873c-.282.177-.445.494-.426.826-.016.337.145.659.426.846.57.3 1.183.513 1.816.631.763.15 1.48.474 2.096.95.493.464.75 1.125.703 1.801.022.748-.308 1.463-.89 1.933-.668.518-1.498.78-2.341.741-1.396.007-2.742-.519-3.763-1.47l.962-1.154c.767.738 1.78 1.164 2.844 1.197.414.022.824-.09 1.17-.32.278-.19.44-.508.434-.844.013-.325-.14-.635-.408-.82-.432-.26-.907-.44-1.403-.533-.513-.116-1.018-.264-1.512-.443-.332-.127-.642-.305-.919-.527-.556-.456-.855-1.156-.8-1.873-.04-.76.302-1.489.911-1.945.656-.47 1.449-.71 2.256-.683.585.002 1.165.1 1.72.288.537.173 1.037.447 1.473.807l-.814 1.154c-.318-.272-.688-.475-1.087-.598-.432-.153-.887-.232-1.346-.235-.389-.02-.775.074-1.11.271h.008zM78.79 26.917c.37.41.897.639 1.448.631.56.004 1.097-.222 1.486-.625.428-.428.657-1.015.634-1.62.02-.61-.203-1.204-.62-1.651-.378-.423-.92-.662-1.487-.658-.56-.008-1.096.233-1.461.658-.402.452-.615 1.04-.595 1.645-.025.596.185 1.178.586 1.62h.009zm4.038-4.23c.67.68 1.027 1.608.983 2.562.04.964-.313 1.902-.976 2.602-.594.662-1.45 1.028-2.338 1-.889-.027-1.72-.446-2.27-1.143v3.564h-1.45v-9.445h1.45v1.21c.45-.807 1.3-1.31 2.224-1.317.886-.014 1.74.334 2.364.963l.013.004zm-12.722 4.23c.37.408.897.638 1.448.631.56.003 1.098-.222 1.487-.625.428-.428.657-1.015.634-1.62.02-.61-.203-1.204-.621-1.651-.378-.423-.92-.663-1.487-.658-.56-.007-1.095.233-1.461.658-.402.452-.614 1.04-.594 1.645-.027.596.182 1.178.58 1.62h.014zm4.038-4.23c.67.68 1.026 1.608.982 2.562.04.964-.312 1.902-.976 2.602-.593.662-1.449 1.028-2.338 1-.888-.027-1.72-.446-2.27-1.143v3.564h-1.466v-9.445h1.448v1.21c.454-.809 1.309-1.31 2.237-1.313.886-.016 1.74.33 2.366.959l.017.004zM63.89 25.262l-1.642-3.75-1.641 3.75h3.283zm-3.92 1.418l-.905 2.068h-1.63l3.982-9.094h1.63l3.982 9.094h-1.63l-.905-2.068H59.97z"/>
            </g>
        </g>
    </g>
</svg>
