<svg xmlns="http://www.w3.org/2000/svg" xmlns:xlink="http://www.w3.org/1999/xlink" width="30" height="30"
     viewBox="0 0 30 30">
    <defs>
        <path id="a"
              d="M29.222 7.705c-.524-.117-1.084.242-1.193.73-.03.116-.14.495-.404 1.004l-7.067-7.067c.58-.295.986-.39.997-.392 1.29-.303.83-2.253-.462-1.948-.08.02-7.917 2.066-6.63 13.252a23.6 23.6 0 0 0-1.53-.05C3.797 13.234.3 18.976.157 19.218c-.684 1.152 1.047 2.122 1.717 1.027.053-.087.327-.518.878-1.101l8.108 8.11c-.577.547-1.01.823-1.092.873-1.137.677-.122 2.385 1.017 1.724.273-.164 6.627-4.064 5.935-14.312 8.194.95 12.425-3.21 13.255-6.637a.997.997 0 0 0-.753-1.197zM13.825 19L10 15.173c1.22-.185 2.58-.222 3.935-.11a16.943 16.943 0 0 1-.11 3.937zm-6.094-3L14 22.282c-.628 1.851-1.39 3.095-1.926 3.718L4 17.928C5.395 16.799 7.205 16.235 7.731 16zm8.329-7L20 12.938c-1.16.11-2.46.072-3.821-.11-.188-1.38-.228-2.666-.12-3.828zm6.756 4L17 7.195c.424-1.377 1.032-2.334 1.843-3.195L26 11.097l-.076.095c-1.139 1.11-2.622 1.725-3.108 1.808z"/>
    </defs>
    <g fill="none" fill-rule="evenodd">
        <mask id="b" fill="#fff">
            <use xlink:href="#a"/>
        </mask>
        <use fill="rgb(92, 184, 186)" fill-rule="nonzero" xlink:href="#a"/>
        <g fill="rgb(92, 184, 186)" mask="url(#b)">
            <path d="M0 0h30v30H0z"/>
        </g>
    </g>
</svg>
