<!-- Generated by IcoMoon.io -->
<svg version="1.1" xmlns="http://www.w3.org/2000/svg" width="32" height="32" viewBox="0 0 32 32">
<title>doctor</title>
<path fill="#5cb8ba" d="M22.248 18.85c-0.052-0.704-0.228-1.355-0.508-1.948l0.014 0.034c0.559-0.697 0.956-1.549 1.12-2.48l0.005-0.033c0.2-0.090 0.371-0.21 0.516-0.356l0-0c0.658-0.667 0.641-1.687 0.624-2.673-0.002-0.145-0.005-0.289-0.005-0.431v-1.528c0-0.926-0.718-1.622-1.227-1.998v-2.587c0-1.584-0.627-2.869-1.813-3.715-2.268-1.619-5.917-1.258-8.415-0.442-2.276 0.077-3.794 1.912-3.794 4.616v1.846c-1.227 0.39-1.227 1.629-1.227 2.28v1.528c0 0.186-0.007 0.377-0.013 0.567-0.031 0.934-0.064 1.899 0.561 2.542 0.141 0.145 0.309 0.264 0.496 0.348l0.010 0.004c0.159 0.898 0.614 1.818 1.279 2.646-0.002 0.066-0.010 0.13-0.010 0.197v1.721c-4.663 0.339-8.359 3.789-8.359 8.633 0 0.484 0.392 0.876 0.876 0.876s0.876-0.392 0.876-0.876v0c0-3.815 2.975-6.553 6.608-6.886v1.619c-0.924 0.362-1.567 1.246-1.567 2.281 0 1.349 1.094 2.443 2.443 2.443s2.443-1.094 2.443-2.443c0-1.034-0.643-1.918-1.55-2.275l-0.017-0.006v-3.692c1.14 0.787 2.549 1.262 4.068 1.275l0.003 0h0.23c1.505 0 3.156-0.624 4.48-1.645 0.066 0.25 0.109 0.539 0.12 0.836l0 0.007c0 0.172 0.002 1.218 0.002 1.087v1.56c-2.189 1.026-3.387 5.366-3.688 7.173-0.017 0.1-0.027 0.215-0.027 0.332 0 0.502 0.183 0.962 0.486 1.316l-0.002-0.003c0.088 0.1 0.183 0.19 0.285 0.271l0.005 0.003c0.19 0.656 0.786 1.128 1.491 1.128 0.856 0 1.55-0.694 1.55-1.55s-0.694-1.55-1.55-1.55c-0.001 0-0.003 0-0.004 0h0c-0.164 0.002-0.321 0.030-0.468 0.079l0.011-0.003c0.569-3.082 2.026-5.673 2.873-5.673 0.669 0 1.955 2.187 2.73 5.326 0.014 0.055 0.023 0.119 0.023 0.184 0 0.055-0.006 0.109-0.017 0.161l0.001-0.005c-0.13-0.042-0.279-0.068-0.434-0.070h-0.001c-0.854 0.001-1.547 0.694-1.547 1.549s0.693 1.549 1.549 1.549c0.839 0 1.522-0.667 1.548-1.5l0-0.002c0.040-0.044 0.081-0.086 0.117-0.133 0.335-0.42 0.538-0.959 0.538-1.545 0-0.215-0.027-0.423-0.078-0.622l0.004 0.017c-0.344-1.394-1.545-5.604-3.642-6.488v-1.111c3.506 0.436 6.48 3.19 6.48 7.006 0 0.484 0.392 0.876 0.876 0.876s0.876-0.392 0.876-0.876v0c0.001-4.774-3.764-8.324-8.251-8.77zM10.279 13.713c-0.001-0.482-0.392-0.873-0.874-0.873-0.001 0-0.001 0-0.002 0h0c-0.001 0-0.003 0-0.005 0-0.022 0-0.044-0.001-0.065-0.004l0.003 0c-0.095-0.209-0.073-0.855-0.060-1.249 0.007-0.21 0.014-0.42 0.014-0.625v-1.528c-0.001-0.038-0.002-0.082-0.002-0.127 0-0.175 0.013-0.347 0.037-0.515l-0.002 0.019c0.084-0.021 0.179-0.033 0.278-0.033 0.014 0 0.029 0 0.043 0.001l-0.002-0c0 0 0.001 0 0.002 0 0.482 0 0.873-0.39 0.874-0.873v-2.598c0-1.389 0.576-2.873 2.192-2.873 0.101-0 0.198-0.017 0.288-0.048l-0.006 0.002c2.69-0.91 5.553-0.842 6.964 0.164 0.727 0.519 1.081 1.27 1.081 2.296v3.056c0.002 0.324 0.179 0.607 0.442 0.758l0.004 0.002c0.402 0.228 0.781 0.626 0.781 0.768v1.528c0 0.151 0.003 0.306 0.005 0.46 0.007 0.436 0.021 1.249-0.102 1.406-0.027 0.008-0.058 0.012-0.090 0.012-0.006 0-0.013-0-0.019-0.001l0.001 0c-0 0-0.001 0-0.002 0-0.482 0-0.873 0.391-0.874 0.873v0c0 2.369-2.945 4.476-5.267 4.476h-0.23c-2.361 0-5.406-2.17-5.406-4.476zM10.736 25.309c-0.379-0.002-0.685-0.309-0.685-0.688 0-0.38 0.308-0.688 0.688-0.688s0.688 0.308 0.688 0.688c0 0 0 0 0 0v0c-0.001 0.38-0.31 0.688-0.69 0.688-0 0-0.001 0-0.001 0h0z"></path>
</svg>
