<?xml version="1.0" encoding="UTF-8"?>
<svg width="16px" height="16px" viewBox="0 0 16 16" version="1.1" xmlns="http://www.w3.org/2000/svg" xmlns:xlink="http://www.w3.org/1999/xlink">
    <!-- Generator: Sketch 59 (86127) - https://sketch.com -->
    <title>3. Icons/ic_person</title>
    <desc>Created with Sketch.</desc>
    <defs>
        <path d="M15,15 C17.21,15 19,13.21 19,11 C19,8.79 17.21,7 15,7 C12.79,7 11,8.79 11,11 C11,13.21 12.79,15 15,15 L15,15 Z M15,17 C12.33,17 7,18.34 7,21 L7,23 L23,23 L23,21 C23,18.34 17.67,17 15,17 L15,17 Z" id="path-1"></path>
    </defs>
    <g id="Guidelines" stroke="none" stroke-width="1" fill="none" fill-rule="evenodd">
        <g id="-Icons,-Components,-Colors-Symbols" transform="translate(-487.000000, -607.000000)">
            <g id="3.-Icons-183" transform="translate(165.000000, 90.000000)">
                <g id="content" transform="translate(65.000000, 150.000000)">
                    <g id="3.-Icons/ic_person" transform="translate(250.000000, 360.000000)">
                        <mask id="mask-2" fill="white">
                            <use xlink:href="#path-1"></use>
                        </mask>
                        <g id="Icon"></g>
                        <g id="5.-Colors/Gray-85" mask="url(#mask-2)" fill="#D8D8D8" fill-rule="evenodd">
                            <g transform="translate(2.000000, 2.000000)" id="Gray-85">
                                <rect x="0" y="0" width="26" height="26"></rect>
                            </g>
                        </g>
                    </g>
                </g>
            </g>
        </g>
    </g>
</svg>