<svg xmlns="http://www.w3.org/2000/svg" width="155" height="40" viewBox="0 0 155 40">
    <g fill="none" fill-rule="evenodd">
        <g>
            <g transform="translate(-185 -585) translate(185.75 585)">
                <rect width="154" height="40" fill="#18A8AA" rx="20"/>
                <path fill="#FFF" d="M111.612 11.4c.263-.272.398-.643.372-1.021.024-.38-.11-.754-.372-1.031-.319-.265-.729-.395-1.142-.362h-.562v2.766h.64c.387.025.768-.1 1.064-.351zm.74-2.702c.445.432.681 1.036.646 1.656.033.622-.196 1.23-.63 1.678-.535.451-1.226.673-1.924.617H108.9V8.103h1.597c.672-.046 1.336.167 1.856.595zm-6.514.758l-.569 1.32h1.132l-.563-1.32zm1.364 3.193l-.42-.982h-1.894l-.42.982h-1.072l1.953-4.546h.976l1.952 4.546h-1.075zm-6.41.046c-.631.015-1.24-.228-1.687-.673-.914-.93-.914-2.42 0-3.349.946-.897 2.428-.897 3.374 0 .914.93.914 2.42 0 3.349-.447.445-1.057.688-1.688.673zm.956-3.383c-.241-.273-.589-.43-.953-.43-.365 0-.712.157-.954.43-.516.595-.516 1.478 0 2.073.243.27.59.426.954.426s.71-.155.953-.426c.518-.594.518-1.479 0-2.073zm-6.717 3.337V8.103h1.008v3.644h1.924v.904H95.03v-.002zM92.81 8.103h1.008v4.546H92.81l-2.153-2.85v2.85h-1.01V8.103h.942l2.218 2.927V8.103h.003zm-8.44 2.614l.801-2.614h1.058l.795 2.614.898-2.614h1.092l-1.576 4.546h-.75l-.99-3.162-.983 3.162h-.749l-1.578-4.546h1.093l.888 2.614zm-4.665 1.978c-.63.015-1.24-.228-1.688-.673-.914-.93-.914-2.42 0-3.349.946-.897 2.429-.897 3.374 0 .915.93.915 2.42 0 3.349-.447.446-1.058.689-1.69.673h.004zm.961-3.383c-.241-.273-.589-.43-.953-.43-.365 0-.713.157-.954.43-.517.595-.517 1.478 0 2.073.243.27.59.426.954.426s.71-.155.953-.426c.515-.596.512-1.48-.007-2.073h.007zm-5.43 2.089c.262-.273.396-.645.37-1.022.025-.38-.11-.754-.37-1.031-.319-.265-.729-.395-1.142-.362h-.562v2.766h.633c.387.025.768-.1 1.063-.351h.008zm.739-2.703c.446.432.682 1.036.647 1.656.032.622-.196 1.23-.63 1.678-.535.451-1.226.673-1.924.617h-1.545V8.103h1.597c.67-.044 1.33.17 1.847.595h.008zm-6.33-.595v.904h-2.25v.936h2.02v.866h-2.02v.943h2.321v.897h-3.34V8.103H69.646zm-4.327 0v.904h-2.25v.936h2.024v.866h-2.024v.943h2.321v.897H62.05V8.103h3.268zm-5.608 2.049c.136-.144.205-.34.187-.538.023-.19-.049-.378-.192-.504-.209-.11-.444-.156-.679-.136h-.756v1.346h.737c.243.024.488-.035.693-.168h.01zm1.215-.54c.072.612-.282 1.194-.86 1.411l1.145 1.626h-1.242l-1.002-1.45h-.698v1.45H57.26V8.103h1.712c.527-.047 1.054.079 1.504.357.318.294.481.72.44 1.151h.009zm-4.615-1.51v.892h-2.096v.982h1.992v.891h-1.992v1.782h-1.007V8.103h3.103zm68.405 23.207c-.636-.004-1.246-.25-1.706-.69l.66-1.184c.243.26.58.415.937.43.302.008.593-.121.788-.353.194-.21.302-.484.304-.769 0-.121-.927-2.493-2.78-7.115h1.536l2.056 5.096 2.054-5.096h1.552l-3.335 8.222c-.18.428-.475.798-.853 1.067-.358.256-.787.393-1.226.392h.013zm-4.327-5.335v-.586h-1.634c-1.042 0-1.564.33-1.564.99-.015.307.13.6.385.774.325.195.701.288 1.08.266.435.009.86-.129 1.208-.39.333-.245.523-.638.508-1.05l.017-.004zm1.449 2.576h-1.32v-.924c-.56.682-1.407 1.062-2.288 1.028-.648.024-1.282-.194-1.778-.61-.47-.41-.73-1.012-.704-1.635-.037-.607.248-1.188.75-1.53.61-.367 1.318-.544 2.03-.507h1.874v-.26c.036-.403-.12-.799-.419-1.07-.3-.271-.71-.386-1.106-.31-.72.028-1.414.273-1.991.703l-.647-.91c.799-.653 1.8-1.006 2.831-1 .713-.03 1.415.187 1.985.617.547.492.831 1.212.77 1.945v4.463h.013zm-7.668 0h-1.442v-9.653h1.442v9.653zm-5.061-4.546c.331-.4.495-.913.458-1.432.054-.514-.165-1.02-.577-1.333-.559-.302-1.193-.438-1.827-.391h-1.551v3.643h1.77c.612.068 1.226-.107 1.71-.487h.017zm1.08-3.75c.67.629 1.017 1.53.943 2.446.078.913-.278 1.81-.962 2.42-.872.577-1.912.848-2.955.768h-1.602v2.668h-1.543v-9.094h3.103c1.06-.09 2.12.188 2.998.788l.017.004zm-16.834 4.332h3.942c.032-.506-.168-.999-.543-1.34-.373-.316-.85-.483-1.338-.468-.517-.005-1.021.167-1.428.487-.42.306-.663.798-.65 1.318l.017.003zm5.391 1.145h-5.391c.027.49.28.939.685 1.216 1.072.733 2.517.582 3.414-.358l.827.91c-.759.778-1.811 1.198-2.896 1.155-.946.024-1.86-.348-2.52-1.026-.66-.678-1.007-1.6-.958-2.545-.047-.975.33-1.921 1.034-2.597.655-.627 1.53-.972 2.437-.961.873-.023 1.724.281 2.386.852.666.593 1.028 1.457.982 2.348v1.006zm-8.494 2.823h-1.448v-9.657h1.448v9.657zm-8.384-2.257c.35.412.87.64 1.409.618.543.02 1.067-.199 1.435-.599.37-.406.567-.94.55-1.49.014-.555-.185-1.095-.556-1.509-.363-.408-.89-.635-1.436-.617-.541-.02-1.06.216-1.402.637-.347.418-.533.947-.524 1.49-.015.534.165 1.055.507 1.466l.017.004zm4.842-4.664v6.036c.111.978-.22 1.955-.902 2.665-.683.709-1.646 1.077-2.628 1.003-1.02.006-2.01-.339-2.806-.975l.686-1.105c.574.476 1.29.747 2.036.769.59.032 1.172-.158 1.629-.534.439-.453.658-1.075.601-1.704v-.884c-.212.404-.532.742-.924.976-.408.244-.876.37-1.351.364-.855.026-1.678-.326-2.25-.961-1.172-1.381-1.172-3.407 0-4.788.57-.634 1.39-.986 2.243-.961.881-.015 1.712.41 2.218 1.131v-1.028h1.448v-.004zm-11.623 7.025c-.968.027-1.904-.347-2.586-1.034-1.38-1.405-1.38-3.656 0-5.06 1.448-1.38 3.723-1.38 5.171 0 1.38 1.404 1.38 3.655 0 5.06-.687.69-1.63 1.063-2.603 1.03l.018.004zm0-1.301c.584.018 1.15-.211 1.557-.631.822-.935.822-2.334 0-3.27-.868-.84-2.247-.84-3.115 0-.821.936-.821 2.335 0 3.27.404.414.962.641 1.54.627l.018.004zm-8.43 1.3c-.968.027-1.903-.347-2.586-1.033-1.38-1.405-1.38-3.656 0-5.06 1.448-1.38 3.723-1.38 5.171 0 1.38 1.404 1.38 3.655 0 5.06-.687.69-1.63 1.063-2.603 1.03l.018.004zm0-1.3c.585.018 1.15-.21 1.557-.631.822-.935.822-2.334 0-3.27-.868-.84-2.247-.84-3.115 0-.821.936-.821 2.335 0 3.27.404.414.962.641 1.54.627l.018.004zm-6.49-3.226h1.525v3.108c-.952.987-2.29 1.506-3.658 1.419-1.253.033-2.464-.446-3.355-1.327-1.812-1.885-1.801-4.868.025-6.739.879-.886 2.082-1.374 3.33-1.353 1.187-.04 2.346.368 3.245 1.145l-.815 1.17c-.31-.278-.673-.492-1.067-.63-.405-.124-.826-.184-1.25-.176-.855-.022-1.684.299-2.302.891-1.231 1.31-1.242 3.348-.025 4.67.582.577 1.372.894 2.192.878.756.028 1.504-.166 2.151-.558v-2.5l.003.002zM23.088 9.989c-.058.204-.088.414-.089.626v19.17c.001.209.03.416.087.618L33.676 20.21 23.089 9.99zm14.72 6.243L25.445 9.244c-.405-.279-.907-.378-1.388-.275L34.69 19.235l3.119-3.003zm4.558 2.577l-3.3-1.866-3.38 3.253 3.443 3.325 3.21-1.791c.584-.251.963-.824.965-1.46.002-.635-.373-1.21-.955-1.465l.017.004zm-18.342 12.61c.49.117 1.005.02 1.42-.265l12.403-6.919-3.173-3.064-10.65 10.248z"/>
            </g>
        </g>
    </g>
</svg>
