<svg xmlns="http://www.w3.org/2000/svg" xmlns:xlink="http://www.w3.org/1999/xlink" width="30" height="30" viewBox="0 0 30 30">
    <defs>
        <path id="a" d="M14.066 3.218a2.563 2.563 0 0 1 3.592-.793c.578.382.986.984 1.131 1.673.145.69.017 1.409-.356 2.001l-1.568 2.488c3.692 1.417 6.327 5.063 6.327 9.33 0 2.088-.631 4.032-1.707 5.626h3.341c1.2 0 2.174 1 2.174 2.229S26.027 28 24.826 28H4.174C2.974 28 2 27 2 25.772c0-1.228.973-2.229 2.174-2.229h11.501c2.176-.879 3.714-3.08 3.714-5.625 0-2.903-2.003-5.332-4.668-5.927l-3.094 4.91-4.368-2.881zM5.178 14.515a1.108 1.108 0 0 1 1.54-.336l5.772 3.755c.517.335.665 1.03.332 1.552a1.11 1.11 0 0 1-1.54.336L5.51 16.067a1.128 1.128 0 0 1-.332-1.552z"/>
    </defs>
    <g fill="none" fill-rule="evenodd">
        <mask id="b" fill="#fff">
            <use xlink:href="#a"/>
        </mask>
        <use fill="rgb(92, 184, 186)" fill-rule="nonzero" xlink:href="#a"/>
        <g fill="rgb(92, 184, 186)" mask="url(#b)">
            <path d="M2 2h26v26H2z"/>
        </g>
    </g>
</svg>
