<?xml version="1.0" encoding="UTF-8"?>
<svg width="32px" height="12px" viewBox="0 0 32 12" version="1.1" xmlns="http://www.w3.org/2000/svg" xmlns:xlink="http://www.w3.org/1999/xlink">
    <!-- Generator: Sketch 52.6 (67491) - http://www.bohemiancoding.com/sketch -->
    <title>logo</title>
    <desc>Created with Sketch.</desc>
    <g id="Page-2" stroke="none" stroke-width="1" fill="none" fill-rule="evenodd">
        <g id="Android" transform="translate(-115.000000, -297.000000)" fill-rule="nonzero">
            <g id="logo" transform="translate(114.000000, 297.000000)">
                <path d="M24.287,5.358 C24.247,4.942 24.326,4.354 24.67,3.95 C24.892,3.693 25.214,3.528 25.574,3.516 L25.576,3.516 C25.588,3.516 25.602,3.515 25.615,3.515 C25.993,3.515 26.331,3.688 26.554,3.959 L26.556,3.961 C26.841,4.315 26.951,4.842 26.843,5.337 C26.617,6.373 25.875,7.195 25.293,7.702 C25.292,7.703 25.291,7.704 25.29,7.705 C25.12,7.499 24.961,7.27 24.823,7.027 L24.811,7.003 C24.538,6.529 24.352,5.971 24.288,5.376 L24.286,5.357 L24.287,5.358 Z M30.249,7.702 C30.25,7.703 30.251,7.704 30.252,7.704 C30.422,7.498 30.581,7.269 30.719,7.027 L30.731,7.003 C31.004,6.529 31.191,5.971 31.254,5.377 L31.256,5.359 C31.297,4.943 31.218,4.354 30.874,3.95 C30.652,3.693 30.33,3.528 29.97,3.516 L29.968,3.516 C29.956,3.516 29.942,3.515 29.928,3.515 C29.55,3.515 29.212,3.688 28.989,3.959 L28.987,3.961 C28.702,4.315 28.592,4.842 28.7,5.337 C28.926,6.373 29.667,7.195 30.25,7.702 L30.249,7.702 Z M25.244,8.283 C24.786,8.641 24.266,8.958 23.712,9.213 L23.663,9.233 C24.628,10.454 26.109,11.23 27.771,11.23 C29.433,11.23 30.914,10.454 31.87,9.244 L31.878,9.233 C31.275,8.958 30.756,8.641 30.28,8.27 L30.297,8.283 C30.209,8.375 30.117,8.466 30.021,8.553 C29.67,8.878 29.272,9.159 28.839,9.383 L28.809,9.397 C28.416,9.593 28.047,9.7 27.77,9.7 L27.769,9.7 C27.491,9.7 27.121,9.593 26.729,9.397 C26.266,9.159 25.868,8.878 25.514,8.55 L25.517,8.553 C25.4216667,8.46566667 25.33,8.37566667 25.242,8.283 L25.244,8.283 Z M30.576,7.968 C31.026,8.318 31.537,8.625 32.084,8.867 L32.131,8.885 C32.676,8.073 33.001,7.073 33.001,5.997 C33.001,3.109 30.66,0.768 27.772,0.768 C24.884,0.768 22.543,3.109 22.543,5.997 C22.543,7.073 22.868,8.072 23.425,8.904 L23.413,8.885 C24.006,8.625 24.517,8.318 24.983,7.955 L24.966,7.967 C24.782,7.744 24.61,7.495 24.461,7.232 L24.447,7.206 C24.147,6.685 23.942,6.071 23.873,5.418 L23.871,5.398 C23.808,4.748 23.988,4.105 24.352,3.677 C24.647,3.335 25.075,3.115 25.554,3.096 L25.557,3.096 L25.57,3.096 C25.585,3.095 25.603,3.095 25.621,3.095 C26.129,3.095 26.582,3.329 26.88,3.694 L26.882,3.697 C27.245,4.147 27.387,4.809 27.252,5.425 C27.003,6.573 26.198,7.467 25.569,8.016 C25.644,8.094 25.721,8.169 25.802,8.243 C26.364,8.759 27.22,9.28 27.771,9.28 L27.772,9.28 C28.322,9.28 29.178,8.759 29.74,8.243 C29.821,8.169 29.898,8.093 29.973,8.015 C29.343,7.466 28.54,6.572 28.291,5.424 C28.157,4.808 28.298,4.146 28.66,3.696 C28.96,3.327 29.413,3.094 29.922,3.094 C29.94,3.094 29.958,3.094 29.976,3.095 L29.973,3.095 L29.986,3.095 C30.468,3.114 30.896,3.335 31.189,3.674 L31.191,3.676 C31.554,4.103 31.734,4.747 31.671,5.397 C31.6,6.071 31.395,6.684 31.083,7.227 L31.095,7.204 C30.932,7.493 30.76,7.742 30.569,7.974 L30.576,7.965 L30.576,7.968 Z" id="Shape" fill="#5CB8BA"></path>
                <path d="M19.87,9.911 C19.824,9.854 19.796,9.78 19.796,9.7 C19.796,9.692 19.796,9.683 19.797,9.675 L19.797,9.676 L19.797,8.748 L19.949,8.748 L19.949,9.681 L19.948,9.684 C19.948,9.688 19.948,9.693 19.948,9.698 C19.948,9.739 19.961,9.777 19.982,9.809 L19.982,9.808 C19.994,9.821 20.012,9.828 20.031,9.828 C20.033,9.828 20.036,9.828 20.038,9.828 L20.038,9.98 C20.036,9.98 20.034,9.98 20.032,9.98 C19.969,9.98 19.912,9.954 19.872,9.911 L19.87,9.911 Z M19.964,8.547 C19.964,8.597 19.923,8.638 19.873,8.638 C19.823,8.638 19.782,8.597 19.782,8.547 C19.782,8.497 19.822,8.457 19.872,8.456 C19.872,8.456 19.872,8.456 19.872,8.456 C19.922,8.456 19.963,8.497 19.963,8.547 L19.964,8.547 Z M19.497,1.892 L20.037,1.892 L20.037,7.618 L19.497,7.618 L19.497,1.892 Z M19.62,9.635 C19.62,9.825 19.465,9.98 19.275,9.98 C19.275,9.98 19.275,9.98 19.275,9.98 L18.619,9.98 L18.619,8.452 L18.771,8.452 L18.771,8.748 L19.275,8.748 C19.275,8.748 19.275,8.748 19.275,8.748 C19.466,8.748 19.62,8.902 19.62,9.093 L19.62,9.636 L19.62,9.635 Z M19.467,9.092 C19.467,8.985 19.38,8.899 19.274,8.899 L18.77,8.899 L18.77,9.828 L19.274,9.828 C19.381,9.828 19.467,9.742 19.467,9.635 L19.467,9.092 Z M17.426,7.629 C17.426,7.629 17.425,7.629 17.425,7.629 C17.159,7.629 16.914,7.543 16.714,7.398 L16.718,7.4 C16.688,7.378 16.658,7.355 16.63,7.331 C16.607,7.311 16.585,7.29 16.563,7.268 C16.547,7.25066667 16.5306667,7.23333333 16.514,7.216 C16.511,7.213 16.508,7.209 16.505,7.205 C16.501,7.201 16.497,7.196 16.493,7.192 C16.475,7.17 16.484,7.17 16.465,7.193 C16.459,7.2 16.453,7.208 16.446,7.215 C16.436,7.227 16.426,7.238 16.415,7.249 C16.391,7.27366667 16.3663333,7.29766667 16.341,7.321 C16.292,7.364 16.239,7.404 16.183,7.44 L16.178,7.443 C15.996,7.56 15.774,7.629 15.535,7.629 C15.534,7.629 15.533,7.629 15.532,7.629 L10.13,7.629 C10.13,7.629 10.13,7.629 10.129,7.629 C9.927,7.629 9.737,7.58 9.569,7.493 L9.576,7.496 C9.521,7.468 9.475,7.44 9.431,7.409 L9.435,7.412 C9.407,7.392 9.37966667,7.371 9.353,7.349 C9.33566667,7.33566667 9.31933333,7.32133333 9.304,7.306 C9.28,7.284 9.258,7.262 9.236,7.239 C9.226,7.22766667 9.21566667,7.21633333 9.205,7.205 C9.172,7.166 9.19,7.167 9.158,7.204 C9.151,7.212 9.144,7.22 9.137,7.228 C9.128,7.239 9.117,7.249 9.107,7.26 C9.086,7.282 9.063,7.304 9.039,7.325 C9.021,7.341 9.00233333,7.35666667 8.983,7.372 C8.946,7.401 8.905,7.429 8.863,7.456 L8.857,7.459 C8.679,7.567 8.464,7.631 8.234,7.631 C7.563,7.631 7.019,7.088 7.017,6.418 L7.017,4.238 C7.017,3.864 6.714,3.561 6.34,3.561 C5.966,3.561 5.663,3.864 5.663,4.238 L5.663,6.418 C5.661,7.088 5.117,7.631 4.447,7.631 C4.447,7.631 4.447,7.631 4.446,7.631 L2.216,7.631 C2.216,7.631 2.216,7.631 2.216,7.631 C1.545,7.631 1.001,7.088 0.999,6.418 L0.999,4.238 C1.001,3.567 1.545,3.025 2.216,3.025 C2.216,3.025 2.216,3.025 2.216,3.025 L2.664,3.025 L2.664,3.563 L2.216,3.563 C2.216,3.563 2.216,3.563 2.216,3.563 C1.843,3.563 1.54,3.865 1.539,4.239 L1.539,6.419 C1.54,6.792 1.843,7.095 2.216,7.095 C2.216,7.095 2.216,7.095 2.216,7.095 L4.446,7.095 C4.446,7.095 4.447,7.095 4.447,7.095 C4.82,7.095 5.123,6.793 5.124,6.419 L5.124,4.239 C5.142,3.581 5.68,3.054 6.34,3.054 C7,3.054 7.539,3.581 7.556,4.237 L7.556,4.239 L7.556,6.419 C7.556,6.793 7.859,7.096 8.233,7.096 C8.607,7.096 8.91,6.793 8.91,6.419 L8.91,3.014 L9.45,3.014 L9.45,6.419 C9.451,6.792 9.754,7.095 10.127,7.095 C10.127,7.095 10.127,7.095 10.127,7.095 L10.807,7.095 L10.807,1.895 L11.347,1.895 L11.347,3.451 C11.637,3.188 12.023,3.026 12.448,3.026 C12.449,3.026 12.449,3.026 12.45,3.026 L15.531,3.026 C15.531,3.026 15.532,3.026 15.532,3.026 C16.203,3.026 16.746,3.569 16.748,4.239 L16.748,6.419 C16.748,6.793 17.051,7.097 17.426,7.097 C17.801,7.097 18.104,6.794 18.104,6.419 L18.104,1.895 L18.643,1.895 L18.643,6.419 C18.641,7.089 18.097,7.632 17.427,7.632 C17.427,7.632 17.427,7.632 17.426,7.632 L17.426,7.629 Z M16.21,4.236 C16.209,3.863 15.906,3.561 15.532,3.561 C15.532,3.561 15.532,3.561 15.531,3.561 L12.45,3.561 C12.45,3.561 12.45,3.561 12.45,3.561 C11.843,3.561 11.35,4.052 11.348,4.659 L11.348,7.092 L15.531,7.092 C15.531,7.092 15.531,7.092 15.531,7.092 C15.905,7.092 16.208,6.79 16.209,6.416 L16.209,4.235 L16.21,4.236 Z M2.946,8.457 C3.134,8.457 3.286,8.61 3.286,8.797 C3.286,8.984 3.134,9.137 2.946,9.137 C2.758,9.137 2.606,8.985 2.606,8.797 C2.606,8.609 2.759,8.457 2.947,8.457 C2.947,8.457 2.947,8.457 2.947,8.457 L2.946,8.457 Z M3.842,8.457 C4.03,8.457 4.182,8.61 4.182,8.797 C4.182,8.984 4.03,9.137 3.842,9.137 C3.654,9.137 3.502,8.985 3.502,8.797 C3.502,8.609 3.655,8.457 3.843,8.457 C3.843,8.457 3.843,8.457 3.843,8.457 L3.842,8.457 Z M9.189,8.457 C9.377,8.457 9.529,8.61 9.529,8.797 C9.529,8.984 9.377,9.137 9.189,9.137 C9.001,9.137 8.849,8.985 8.849,8.797 C8.849,8.797 8.849,8.797 8.849,8.797 C8.849,8.609 9.001,8.457 9.189,8.457 C9.189,8.457 9.19,8.457 9.19,8.457 L9.189,8.457 Z M15.024,8.741 L15.4,8.741 C15.4,8.741 15.4,8.741 15.4,8.741 C15.591,8.741 15.745,8.895 15.745,9.086 L15.745,9.981 L15.593,9.981 L15.593,9.903 C15.515,9.95 15.421,9.978 15.32,9.978 C15.31,9.978 15.3,9.978 15.289,9.977 L15.29,9.977 L15.023,9.977 C15.021,9.977 15.018,9.977 15.016,9.977 C14.829,9.977 14.678,9.826 14.678,9.639 C14.678,9.639 14.678,9.639 14.678,9.639 L14.678,9.086 C14.678,8.895 14.833,8.741 15.023,8.741 C15.023,8.741 15.023,8.741 15.023,8.741 L15.024,8.741 Z M14.83,9.638 C14.831,9.741 14.915,9.825 15.018,9.825 C15.02,9.825 15.022,9.825 15.024,9.825 L15.299,9.825 C15.306,9.825 15.315,9.826 15.323,9.826 C15.403,9.826 15.476,9.8 15.536,9.756 L15.535,9.757 C15.572,9.72 15.594,9.67 15.594,9.614 C15.594,9.609 15.594,9.604 15.593,9.599 L15.593,9.6 L15.593,9.086 C15.593,8.979 15.506,8.893 15.4,8.893 L15.024,8.893 C15.024,8.893 15.024,8.893 15.024,8.893 C14.917,8.893 14.831,8.979 14.83,9.086 L14.83,9.639 L14.83,9.638 Z M16.104,9.98 L15.953,9.98 L15.953,8.451 L16.104,8.451 L16.104,9.979 L16.104,9.98 Z M16.468,8.748 L16.709,8.748 L16.709,8.9 L16.468,8.9 L16.468,9.653 C16.468,9.75 16.547,9.828 16.644,9.828 C16.644,9.828 16.644,9.828 16.644,9.828 L16.953,9.828 L16.953,9.98 L16.644,9.98 C16.463,9.98 16.317,9.834 16.316,9.653 L16.316,8.451 L16.467,8.451 L16.467,8.747 L16.468,8.748 Z M17.141,8.456 C17.191,8.456 17.231,8.497 17.231,8.546 C17.231,8.595 17.19,8.636 17.141,8.636 C17.091,8.636 17.051,8.596 17.051,8.546 C17.051,8.546 17.051,8.545 17.051,8.545 C17.051,8.495 17.091,8.455 17.141,8.455 C17.141,8.455 17.142,8.455 17.142,8.455 L17.141,8.456 Z M17.064,8.748 L17.216,8.748 L17.216,9.684 C17.216,9.689 17.215,9.694 17.215,9.699 C17.215,9.74 17.227,9.777 17.248,9.809 L17.248,9.808 C17.261,9.82 17.278,9.828 17.297,9.828 C17.299,9.828 17.301,9.828 17.303,9.828 L17.303,9.98 C17.301,9.98 17.299,9.98 17.297,9.98 C17.234,9.98 17.177,9.954 17.137,9.911 C17.091,9.853 17.063,9.779 17.063,9.699 C17.063,9.691 17.063,9.683 17.064,9.676 L17.064,9.677 L17.064,8.748 Z M17.614,8.748 L18.118,8.748 C18.308,8.748 18.463,8.902 18.464,9.093 L18.464,9.636 C18.463,9.826 18.309,9.98 18.119,9.981 L17.463,9.981 L17.463,8.452 L17.615,8.452 L17.615,8.748 L17.614,8.748 Z M17.614,9.828 L18.118,9.828 C18.225,9.828 18.311,9.742 18.311,9.635 L18.311,9.092 C18.311,8.985 18.224,8.899 18.118,8.899 L17.614,8.899 L17.614,9.828 Z" id="Shape" fill="#1D4289"></path>
            </g>
        </g>
    </g>
</svg>