<svg id="svg" version="1.1" xmlns="http://www.w3.org/2000/svg" xmlns:xlink="http://www.w3.org/1999/xlink" width="400" height="266.6666666666667" viewBox="0, 0, 400,266.6666666666667"><g id="svgg"><path id="path0" d="M120.709 78.482 C 120.466 78.995,120.267 79.726,120.267 80.107 C 120.267 80.488,120.161 80.800,120.031 80.800 C 119.901 80.800,119.709 81.610,119.604 82.600 C 119.498 83.590,119.300 84.610,119.163 84.867 C 119.001 85.171,119.011 85.333,119.191 85.333 C 119.342 85.333,119.467 85.513,119.467 85.733 C 119.467 85.953,119.365 86.133,119.240 86.133 C 119.115 86.133,119.011 86.703,119.009 87.400 C 119.008 88.097,118.741 90.947,118.417 93.733 C 116.436 110.768,119.913 128.885,128.217 144.800 C 134.833 157.481,145.954 167.292,159.200 172.132 C 160.300 172.534,161.440 172.957,161.733 173.072 C 162.027 173.186,162.957 173.470,163.802 173.701 C 164.646 173.933,165.966 174.296,166.735 174.509 C 167.504 174.721,168.793 175.034,169.600 175.205 C 170.407 175.376,171.487 175.625,172.000 175.758 C 172.513 175.892,173.953 176.127,175.200 176.280 C 176.447 176.433,177.977 176.625,178.600 176.706 C 179.816 176.864,180.155 176.415,179.333 175.733 C 179.113 175.551,178.933 175.277,178.933 175.126 C 178.933 174.974,178.660 174.479,178.326 174.025 C 177.991 173.571,177.432 172.628,177.082 171.930 C 176.732 171.231,176.285 170.526,176.089 170.364 C 175.894 170.201,175.733 169.961,175.733 169.831 C 175.733 169.701,175.133 168.637,174.400 167.467 C 173.667 166.297,173.067 165.259,173.067 165.161 C 173.067 165.064,172.784 164.612,172.438 164.159 C 172.093 163.705,171.716 163.033,171.602 162.667 C 171.487 162.300,171.110 161.661,170.764 161.246 C 170.417 160.832,170.133 160.336,170.133 160.146 C 170.133 159.955,169.946 159.643,169.718 159.454 C 169.489 159.264,169.131 158.699,168.921 158.197 C 168.712 157.696,168.299 157.222,168.004 157.145 C 167.708 157.068,167.467 156.898,167.467 156.769 C 167.467 156.639,167.215 156.533,166.907 156.533 C 166.599 156.533,165.969 156.368,165.507 156.165 C 165.045 155.962,164.247 155.613,163.733 155.388 C 162.623 154.902,159.446 153.463,158.133 152.852 C 141.056 144.892,128.299 129.980,123.529 112.400 C 121.703 105.674,121.201 101.865,121.437 96.533 C 121.531 94.407,121.680 90.627,121.768 88.133 C 121.857 85.640,122.040 83.462,122.176 83.293 C 122.397 83.017,122.231 80.562,121.972 80.289 C 121.914 80.228,121.867 80.611,121.867 81.140 C 121.867 81.669,121.760 82.168,121.630 82.248 C 121.099 82.576,120.862 79.813,121.345 78.912 C 121.512 78.599,121.529 78.226,121.387 77.972 C 121.195 77.629,121.068 77.725,120.709 78.482 M118.667 82.918 C 118.667 83.349,118.762 83.761,118.878 83.832 C 118.994 83.904,119.040 83.551,118.982 83.048 C 118.851 81.927,118.667 81.851,118.667 82.918 M143.733 90.267 L 143.733 94.933 146.467 94.929 C 149.083 94.925,149.935 94.753,149.893 94.237 C 149.852 93.743,150.181 93.067,150.462 93.067 C 150.624 93.067,150.681 92.992,150.589 92.900 C 150.498 92.809,150.705 92.359,151.049 91.900 C 151.394 91.442,151.943 90.437,152.271 89.667 C 152.598 88.897,152.949 88.267,153.050 88.267 C 153.151 88.267,153.399 87.847,153.600 87.333 C 153.801 86.820,154.071 86.400,154.199 86.400 C 154.327 86.400,154.364 86.290,154.281 86.156 C 154.198 86.022,154.281 85.851,154.465 85.777 C 154.649 85.703,152.310 85.633,149.267 85.621 L 143.733 85.600 143.733 90.267 M117.000 87.621 C 116.718 87.905,116.750 90.133,117.036 90.133 C 117.165 90.133,117.320 89.863,117.379 89.533 C 117.522 88.732,117.252 87.367,117.000 87.621 M116.513 92.267 C 116.384 93.679,116.428 95.268,116.599 95.374 C 116.709 95.442,116.805 95.341,116.810 95.149 C 116.816 94.957,116.885 94.356,116.964 93.812 C 117.042 93.269,116.981 92.609,116.828 92.346 C 116.608 91.967,116.542 91.951,116.513 92.267 M221.667 93.243 C 221.483 93.317,221.333 93.579,221.333 93.825 C 221.333 94.071,221.040 94.588,220.682 94.974 C 220.324 95.360,220.102 95.746,220.187 95.832 C 220.273 95.917,220.146 96.063,219.905 96.156 C 219.664 96.248,219.467 96.495,219.467 96.704 C 219.467 96.912,219.287 97.152,219.067 97.237 C 218.847 97.321,218.667 97.589,218.667 97.831 C 218.667 98.074,218.374 98.588,218.016 98.974 C 217.658 99.360,217.435 99.746,217.521 99.832 C 217.606 99.917,217.479 100.063,217.238 100.156 C 216.997 100.248,216.800 100.495,216.800 100.704 C 216.800 100.912,216.620 101.152,216.400 101.237 C 216.180 101.321,216.000 101.618,216.000 101.895 C 216.000 102.359,216.232 102.400,218.867 102.401 C 220.443 102.402,222.903 102.480,224.333 102.575 L 226.933 102.747 226.933 97.907 L 226.933 93.067 224.467 93.088 C 223.110 93.099,221.850 93.169,221.667 93.243 M115.935 100.400 C 116.005 100.767,116.108 101.067,116.164 101.067 C 116.221 101.067,116.267 100.767,116.267 100.400 C 116.267 100.033,116.163 99.733,116.037 99.733 C 115.911 99.733,115.865 100.033,115.935 100.400 M195.000 133.243 C 194.817 133.317,194.667 133.579,194.667 133.825 C 194.667 134.071,194.374 134.588,194.016 134.974 C 193.658 135.360,193.435 135.746,193.521 135.832 C 193.606 135.917,193.479 136.063,193.238 136.156 C 192.997 136.248,192.800 136.495,192.800 136.704 C 192.800 136.912,192.620 137.152,192.400 137.237 C 191.319 137.652,192.036 138.133,193.733 138.133 L 195.467 138.133 195.467 135.600 C 195.467 134.207,195.437 133.076,195.400 133.088 C 195.363 133.099,195.183 133.169,195.000 133.243 " stroke="none" fill="#98d4dc" fill-rule="evenodd"></path><path id="path1" d="M124.000 73.851 C 124.000 74.006,123.760 74.133,123.467 74.133 C 123.123 74.133,122.933 74.311,122.933 74.634 C 122.933 75.324,122.355 75.741,121.653 75.558 C 121.209 75.442,121.059 75.525,121.036 75.902 C 120.954 77.243,120.801 77.973,120.546 78.227 C 120.392 78.381,120.269 78.693,120.273 78.920 C 120.276 79.147,120.476 78.934,120.717 78.445 C 121.073 77.721,121.198 77.634,121.388 77.975 C 121.529 78.225,121.511 78.601,121.345 78.912 C 120.862 79.813,121.099 82.576,121.630 82.248 C 121.760 82.168,121.867 81.669,121.867 81.140 C 121.867 79.823,122.048 80.118,122.256 81.775 C 122.365 82.637,122.325 83.215,122.148 83.324 C 121.981 83.428,121.867 84.590,121.867 86.194 C 121.867 87.676,121.948 88.808,122.046 88.709 C 122.238 88.517,122.287 88.054,122.402 85.333 C 122.443 84.380,122.545 83.480,122.630 83.333 C 122.715 83.187,122.802 82.947,122.823 82.800 C 122.876 82.424,123.254 78.336,123.273 77.933 C 123.282 77.750,123.389 77.600,123.511 77.600 C 123.633 77.600,123.733 77.320,123.733 76.978 C 123.733 76.636,123.817 76.272,123.919 76.170 C 124.021 76.068,124.134 75.785,124.169 75.541 C 124.205 75.298,124.302 74.828,124.385 74.499 C 124.468 74.169,124.415 73.825,124.268 73.734 C 124.120 73.643,124.000 73.696,124.000 73.851 M245.142 74.012 C 244.793 74.385,244.982 76.267,245.368 76.267 C 245.496 76.267,245.600 76.737,245.600 77.311 C 245.600 77.886,245.702 78.396,245.826 78.444 C 246.165 78.577,246.461 81.600,246.136 81.600 C 245.988 81.600,245.861 81.510,245.854 81.400 C 245.745 79.665,245.560 78.520,245.359 78.319 C 245.221 78.181,245.172 77.903,245.249 77.701 C 245.327 77.499,245.278 77.333,245.140 77.333 C 244.846 77.333,244.790 78.147,245.058 78.533 C 245.159 78.680,245.267 79.220,245.297 79.733 C 245.360 80.821,245.452 81.314,245.696 81.867 C 245.793 82.087,245.827 82.652,245.772 83.123 C 245.717 83.594,245.796 84.021,245.947 84.071 C 246.098 84.122,246.222 84.726,246.222 85.415 C 246.222 86.103,246.322 86.667,246.444 86.667 C 246.567 86.667,246.667 86.527,246.667 86.356 C 246.667 86.184,246.741 86.119,246.833 86.211 C 246.924 86.302,246.908 86.592,246.796 86.855 C 246.494 87.563,246.389 89.600,246.654 89.600 C 246.780 89.600,246.820 89.842,246.743 90.137 C 246.639 90.534,246.706 90.635,246.999 90.522 C 247.319 90.400,247.402 90.658,247.430 91.852 C 247.449 92.667,247.364 93.333,247.242 93.333 C 247.119 93.333,246.992 94.801,246.958 96.594 C 246.925 98.388,246.799 99.978,246.680 100.128 C 246.561 100.278,246.378 101.570,246.273 103.000 C 246.169 104.430,245.975 105.600,245.842 105.600 C 245.709 105.600,245.600 106.010,245.600 106.511 C 245.600 107.012,245.493 107.462,245.363 107.511 C 245.233 107.560,245.044 108.320,244.944 109.200 C 244.844 110.080,244.651 110.840,244.514 110.889 C 244.378 110.938,244.267 111.261,244.267 111.606 C 244.267 111.952,244.161 112.301,244.031 112.381 C 243.901 112.461,243.714 113.068,243.614 113.730 C 243.515 114.392,243.321 114.933,243.184 114.933 C 243.046 114.933,242.933 115.233,242.933 115.600 C 242.933 115.967,242.829 116.267,242.701 116.267 C 242.573 116.267,242.391 116.747,242.298 117.333 C 242.204 117.920,242.008 118.400,241.864 118.400 C 241.719 118.400,241.600 118.582,241.600 118.804 C 241.600 119.026,241.493 119.416,241.361 119.670 C 241.230 119.925,240.689 121.033,240.158 122.133 C 238.933 124.671,238.056 126.242,237.800 126.356 C 237.690 126.404,237.600 126.600,237.600 126.790 C 237.600 126.979,237.420 127.284,237.200 127.467 C 236.980 127.649,236.800 127.969,236.800 128.178 C 236.800 128.386,236.512 128.868,236.159 129.248 C 235.806 129.628,235.356 130.252,235.159 130.634 C 234.962 131.016,234.530 131.584,234.200 131.895 C 233.870 132.206,233.600 132.569,233.600 132.700 C 233.600 132.831,233.300 133.262,232.933 133.658 C 232.567 134.053,232.267 134.431,232.267 134.498 C 232.267 135.000,223.498 143.729,222.987 143.736 C 222.884 143.737,222.358 144.157,221.818 144.669 C 221.278 145.181,220.762 145.600,220.673 145.600 C 220.583 145.600,220.187 145.900,219.791 146.267 C 219.396 146.633,218.927 146.933,218.749 146.933 C 218.572 146.933,218.331 147.084,218.213 147.267 C 218.096 147.451,217.640 147.781,217.200 148.000 C 216.760 148.220,216.241 148.550,216.048 148.733 C 215.854 148.917,215.546 149.067,215.365 149.067 C 215.183 149.067,214.791 149.293,214.495 149.569 C 214.198 149.845,213.575 150.155,213.111 150.257 C 212.647 150.359,212.267 150.553,212.267 150.688 C 212.267 150.823,212.087 150.933,211.867 150.933 C 211.647 150.933,211.467 151.040,211.467 151.170 C 211.467 151.301,211.047 151.486,210.533 151.582 C 210.020 151.679,209.600 151.872,209.600 152.012 C 209.600 152.152,209.420 152.267,209.200 152.267 C 208.980 152.267,208.800 152.379,208.800 152.517 C 208.800 152.655,208.260 152.848,207.600 152.947 C 206.940 153.046,206.400 153.234,206.400 153.364 C 206.400 153.494,206.220 153.600,206.000 153.600 C 205.780 153.600,205.600 153.719,205.600 153.864 C 205.600 154.008,205.117 154.204,204.527 154.299 C 203.938 154.393,203.390 154.574,203.312 154.702 C 203.233 154.829,202.936 154.933,202.651 154.933 C 202.366 154.933,202.133 155.042,202.133 155.174 C 202.133 155.306,201.413 155.498,200.533 155.600 C 199.653 155.702,198.933 155.881,198.933 155.997 C 198.933 156.235,198.018 156.417,194.488 156.880 C 193.142 157.056,191.952 157.290,191.843 157.400 C 191.734 157.510,190.230 157.600,188.501 157.600 C 186.665 157.600,185.073 157.730,184.672 157.913 C 184.147 158.152,183.912 158.152,183.673 157.913 C 183.469 157.709,182.265 157.600,180.213 157.600 C 178.293 157.600,177.067 157.496,177.067 157.333 C 177.067 157.187,176.437 157.061,175.667 157.055 C 174.897 157.049,173.727 156.919,173.067 156.767 C 172.407 156.614,171.417 156.427,170.867 156.350 C 170.317 156.273,169.867 156.117,169.867 156.003 C 169.867 155.888,169.209 155.713,168.404 155.612 C 167.600 155.512,166.873 155.318,166.788 155.181 C 166.704 155.045,166.402 154.933,166.118 154.933 C 165.833 154.933,165.600 154.827,165.600 154.697 C 165.600 154.567,165.063 154.380,164.406 154.282 C 163.750 154.183,163.143 153.989,163.057 153.851 C 162.972 153.713,162.669 153.600,162.384 153.600 C 162.100 153.600,161.867 153.491,161.867 153.357 C 161.867 153.223,161.387 153.032,160.800 152.933 C 160.213 152.834,159.733 152.672,159.733 152.573 C 159.733 152.376,157.759 151.467,157.332 151.467 C 157.186 151.467,157.067 151.347,157.067 151.200 C 157.067 151.053,156.887 150.933,156.667 150.933 C 156.447 150.933,156.267 150.828,156.267 150.700 C 156.267 150.572,155.937 150.400,155.533 150.318 C 155.130 150.237,154.540 149.927,154.223 149.629 C 153.905 149.332,153.335 149.010,152.956 148.915 C 152.577 148.820,152.267 148.654,152.267 148.546 C 152.267 148.439,151.847 148.124,151.333 147.848 C 150.820 147.572,150.400 147.253,150.400 147.139 C 150.400 147.026,150.275 146.933,150.122 146.933 C 149.861 146.933,149.559 146.725,148.676 145.933 C 148.472 145.750,148.186 145.600,148.041 145.600 C 147.896 145.600,147.738 145.509,147.689 145.398 C 147.640 145.287,147.060 144.779,146.400 144.268 C 145.740 143.758,144.627 142.769,143.928 142.070 C 143.228 141.372,142.558 140.800,142.440 140.800 C 142.321 140.800,141.394 139.883,140.379 138.763 C 139.364 137.643,138.203 136.378,137.800 135.954 C 137.397 135.529,137.067 135.117,137.067 135.038 C 137.067 134.960,136.917 134.730,136.733 134.527 C 136.550 134.325,136.100 133.780,135.733 133.317 C 135.367 132.853,134.797 132.182,134.467 131.825 C 134.137 131.468,133.867 131.016,133.867 130.821 C 133.867 130.625,133.687 130.316,133.467 130.133 C 133.247 129.951,133.067 129.642,133.067 129.447 C 133.067 129.253,132.917 128.997,132.733 128.880 C 132.406 128.670,132.053 128.123,131.219 126.534 C 130.989 126.094,130.734 125.674,130.653 125.600 C 130.573 125.527,130.184 124.777,129.790 123.933 C 129.396 123.090,128.957 122.400,128.816 122.400 C 128.674 122.400,128.475 121.950,128.374 121.400 C 128.272 120.850,128.117 120.340,128.028 120.267 C 127.615 119.926,127.158 118.876,127.514 119.085 C 127.708 119.198,127.657 119.052,127.400 118.758 C 127.143 118.465,126.933 118.024,126.933 117.779 C 126.933 117.534,126.800 117.333,126.638 117.333 C 126.476 117.333,126.411 117.157,126.494 116.940 C 126.577 116.724,126.459 116.443,126.232 116.316 C 126.005 116.189,125.837 115.976,125.860 115.843 C 125.941 115.365,125.547 113.727,125.271 113.394 C 125.117 113.207,125.067 112.978,125.160 112.885 C 125.253 112.792,125.225 112.585,125.099 112.425 C 124.861 112.122,124.132 109.278,124.247 109.096 C 124.283 109.040,124.195 108.920,124.052 108.830 C 123.909 108.740,123.725 108.247,123.643 107.733 C 123.561 107.220,123.359 105.960,123.193 104.933 C 123.028 103.907,122.832 102.647,122.758 102.133 C 122.685 101.620,122.573 100.840,122.510 100.400 C 122.447 99.960,122.346 98.760,122.285 97.733 C 122.224 96.707,122.149 95.807,122.118 95.733 C 122.061 95.598,122.038 95.333,121.877 92.933 L 121.788 91.600 121.590 93.200 C 118.768 115.939,134.687 141.924,158.133 152.852 C 159.538 153.506,162.694 154.934,163.600 155.325 C 164.040 155.515,164.838 155.864,165.374 156.102 C 165.909 156.339,166.599 156.533,166.907 156.533 C 167.215 156.533,167.467 156.639,167.467 156.769 C 167.467 156.898,167.708 157.068,168.004 157.145 C 168.299 157.222,168.712 157.696,168.921 158.197 C 169.131 158.699,169.489 159.264,169.718 159.454 C 169.946 159.643,170.133 159.955,170.133 160.146 C 170.133 160.336,170.417 160.832,170.764 161.246 C 171.110 161.661,171.487 162.300,171.602 162.667 C 171.716 163.033,172.093 163.705,172.438 164.159 C 172.784 164.612,173.067 165.064,173.067 165.161 C 173.067 165.259,173.667 166.297,174.400 167.467 C 175.133 168.637,175.733 169.701,175.733 169.831 C 175.733 169.961,175.894 170.201,176.089 170.364 C 176.285 170.526,176.732 171.231,177.082 171.930 C 177.432 172.628,177.991 173.571,178.326 174.025 C 178.660 174.479,178.933 174.974,178.933 175.126 C 178.933 175.277,179.113 175.551,179.333 175.733 C 180.155 176.415,179.816 176.864,178.600 176.706 C 177.977 176.625,176.447 176.433,175.200 176.280 C 173.953 176.127,172.513 175.892,172.000 175.758 C 171.487 175.625,170.407 175.376,169.600 175.205 C 168.793 175.034,167.473 174.711,166.667 174.487 C 165.860 174.263,164.540 173.900,163.733 173.680 C 162.927 173.460,162.027 173.186,161.733 173.072 C 161.440 172.957,160.300 172.534,159.200 172.132 C 137.379 164.158,122.461 143.039,118.514 114.533 C 117.578 107.778,117.839 93.359,118.978 88.877 C 119.325 87.511,119.100 86.353,118.531 86.571 C 118.236 86.684,118.133 87.164,118.133 88.429 C 118.133 89.366,118.021 90.133,117.883 90.133 C 117.745 90.133,117.595 90.556,117.549 91.072 C 117.504 91.589,117.347 92.001,117.200 91.988 C 117.053 91.975,116.967 91.802,117.007 91.603 C 117.105 91.121,116.622 90.841,116.377 91.237 C 116.257 91.432,116.300 91.478,116.492 91.359 C 116.661 91.254,116.800 91.289,116.800 91.435 C 116.800 91.582,116.680 91.776,116.533 91.867 C 116.387 91.957,116.275 92.234,116.285 92.482 C 116.301 92.858,116.338 92.847,116.505 92.419 C 116.698 91.929,116.715 91.928,116.894 92.394 C 117.190 93.165,116.764 96.874,116.330 97.308 C 116.077 97.561,115.995 97.998,116.090 98.586 C 116.176 99.112,116.132 99.415,115.984 99.324 C 115.846 99.238,115.733 99.296,115.733 99.451 C 115.733 99.606,115.853 99.733,116.000 99.733 C 116.147 99.733,116.267 100.033,116.267 100.400 C 116.267 100.767,116.147 101.067,116.000 101.067 C 115.635 101.067,115.635 117.774,116.000 118.000 C 116.147 118.091,116.267 118.998,116.267 120.016 C 116.267 121.034,116.369 121.867,116.493 121.867 C 116.618 121.867,116.799 122.971,116.894 124.321 C 116.990 125.671,117.188 126.895,117.334 127.041 C 117.480 127.187,117.600 127.703,117.600 128.187 C 117.600 128.671,117.708 129.067,117.840 129.067 C 117.971 129.067,118.164 129.907,118.267 130.933 C 118.370 131.960,118.569 132.800,118.709 132.800 C 118.850 132.800,118.899 132.907,118.818 133.038 C 118.737 133.169,118.849 133.784,119.068 134.405 C 119.287 135.026,119.467 135.806,119.467 136.138 C 119.467 136.471,119.660 136.817,119.897 136.908 C 120.170 137.013,120.276 137.267,120.188 137.604 C 120.112 137.896,120.188 138.224,120.358 138.334 C 120.528 138.444,120.700 138.773,120.741 139.067 C 120.850 139.852,120.911 140.024,121.526 141.268 C 121.834 141.892,121.979 142.336,121.848 142.255 C 121.537 142.063,122.455 143.810,122.792 144.052 C 122.935 144.154,122.964 144.324,122.858 144.431 C 122.752 144.537,122.837 144.813,123.047 145.045 C 123.257 145.277,123.420 145.527,123.409 145.600 C 123.345 146.019,123.885 147.132,124.346 147.533 C 124.678 147.822,124.749 148.000,124.533 148.000 C 124.261 148.000,124.270 148.103,124.574 148.467 C 124.788 148.723,125.104 149.263,125.276 149.667 C 125.448 150.070,125.711 150.400,125.861 150.400 C 126.011 150.400,126.133 150.700,126.133 151.067 C 126.133 151.433,126.235 151.733,126.360 151.733 C 126.484 151.733,126.794 152.196,127.049 152.761 C 127.304 153.326,127.772 154.082,128.089 154.441 C 128.757 155.197,129.060 155.652,130.068 157.412 C 130.470 158.115,131.248 159.195,131.796 159.812 C 132.344 160.429,132.794 161.023,132.796 161.133 C 132.798 161.243,133.010 161.561,133.267 161.839 C 133.523 162.118,134.513 163.219,135.467 164.288 C 138.348 167.516,141.732 170.788,143.455 172.012 C 143.963 172.372,144.647 172.907,144.976 173.200 C 146.099 174.201,146.378 174.400,146.655 174.400 C 146.808 174.400,146.933 174.514,146.933 174.654 C 146.933 174.794,147.353 175.108,147.867 175.351 C 148.380 175.595,148.800 175.892,148.800 176.012 C 148.800 176.132,149.061 176.314,149.380 176.415 C 149.700 176.516,150.270 176.887,150.647 177.238 C 151.025 177.590,151.723 178.019,152.200 178.192 C 152.677 178.365,153.067 178.583,153.067 178.675 C 153.067 178.767,153.877 179.232,154.867 179.708 C 155.857 180.184,156.907 180.704,157.200 180.862 C 158.275 181.442,158.558 181.571,159.799 182.048 C 160.495 182.315,161.065 182.616,161.066 182.717 C 161.066 182.818,161.607 182.982,162.267 183.081 C 162.927 183.180,163.467 183.367,163.467 183.497 C 163.467 183.627,163.827 183.733,164.267 183.733 C 164.707 183.733,165.067 183.842,165.067 183.975 C 165.067 184.108,165.667 184.299,166.400 184.400 C 167.133 184.501,167.800 184.692,167.882 184.825 C 167.964 184.958,168.374 185.067,168.794 185.067 C 169.213 185.067,169.596 185.186,169.644 185.331 C 169.693 185.477,170.663 185.674,171.800 185.770 C 172.937 185.866,173.867 186.047,173.867 186.172 C 173.867 186.298,174.587 186.400,175.467 186.400 C 176.356 186.400,177.067 186.519,177.067 186.667 C 177.067 186.838,179.689 186.933,184.400 186.933 C 189.111 186.933,191.733 186.838,191.733 186.667 C 191.733 186.519,192.439 186.400,193.318 186.400 C 194.189 186.400,194.970 186.290,195.053 186.156 C 195.136 186.022,196.103 185.828,197.202 185.725 C 198.301 185.622,199.200 185.431,199.200 185.302 C 199.200 185.173,199.620 185.067,200.133 185.067 C 200.647 185.067,201.067 184.958,201.067 184.825 C 201.067 184.692,201.667 184.501,202.400 184.400 C 203.133 184.299,203.733 184.108,203.733 183.975 C 203.733 183.842,204.026 183.733,204.384 183.733 C 204.742 183.733,205.100 183.629,205.179 183.501 C 205.258 183.373,205.714 183.191,206.192 183.095 C 207.243 182.885,208.533 182.335,208.533 182.098 C 208.533 182.003,208.968 181.844,209.499 181.745 C 210.370 181.581,211.378 181.155,211.733 180.800 C 211.807 180.727,212.707 180.247,213.733 179.733 C 214.760 179.220,215.640 178.710,215.689 178.600 C 215.738 178.490,215.948 178.400,216.156 178.400 C 216.363 178.400,216.533 178.293,216.533 178.162 C 216.533 178.031,216.833 177.849,217.200 177.757 C 217.567 177.665,217.867 177.472,217.867 177.328 C 217.867 177.184,218.032 177.067,218.234 177.067 C 218.436 177.067,218.751 176.887,218.933 176.667 C 219.116 176.447,219.483 176.267,219.748 176.267 C 220.014 176.267,220.307 176.027,220.400 175.733 C 220.493 175.440,220.736 175.200,220.939 175.200 C 221.143 175.200,221.609 174.900,221.976 174.533 C 222.342 174.167,222.767 173.867,222.919 173.867 C 223.071 173.867,223.539 173.507,223.960 173.067 C 224.380 172.627,224.840 172.267,224.981 172.267 C 225.122 172.267,225.493 171.997,225.805 171.667 C 227.309 170.080,229.135 168.421,229.474 168.333 C 229.617 168.297,229.733 168.174,229.733 168.062 C 229.733 167.949,230.363 167.220,231.133 166.442 C 231.903 165.664,232.533 164.924,232.533 164.798 C 232.533 164.672,232.767 164.495,233.053 164.404 C 233.339 164.314,233.645 164.012,233.733 163.733 C 233.822 163.455,234.128 163.153,234.414 163.062 C 234.699 162.972,234.933 162.708,234.933 162.478 C 234.933 162.247,235.293 161.714,235.733 161.293 C 236.173 160.873,236.533 160.404,236.533 160.252 C 236.533 160.100,236.833 159.676,237.200 159.309 C 237.567 158.942,237.867 158.481,237.867 158.283 C 237.867 158.085,238.048 157.854,238.271 157.769 C 238.493 157.683,238.790 157.311,238.931 156.940 C 239.072 156.570,239.310 156.267,239.460 156.267 C 239.610 156.267,239.733 156.101,239.733 155.899 C 239.733 155.697,239.913 155.383,240.133 155.200 C 240.353 155.017,240.533 154.672,240.533 154.431 C 240.533 154.191,240.758 153.855,241.033 153.683 C 241.308 153.511,241.616 153.039,241.718 152.635 C 241.819 152.230,242.126 151.704,242.400 151.467 C 242.674 151.229,242.979 150.712,243.078 150.318 C 243.177 149.923,243.365 149.600,243.496 149.600 C 243.626 149.600,243.733 149.360,243.733 149.067 C 243.733 148.773,243.844 148.533,243.979 148.533 C 244.114 148.533,244.303 148.173,244.400 147.733 C 244.497 147.293,244.686 146.933,244.821 146.933 C 244.956 146.933,245.067 146.693,245.067 146.400 C 245.067 146.107,245.177 145.867,245.312 145.867 C 245.447 145.867,245.636 145.508,245.733 145.070 C 245.829 144.631,246.018 144.204,246.154 144.121 C 246.289 144.037,246.400 143.736,246.400 143.451 C 246.400 143.166,246.509 142.933,246.643 142.933 C 246.777 142.933,246.972 142.423,247.076 141.800 C 247.180 141.177,247.341 140.607,247.433 140.533 C 247.820 140.224,248.268 139.151,248.429 138.145 C 248.524 137.552,248.706 137.067,248.834 137.067 C 248.962 137.067,249.067 136.774,249.067 136.416 C 249.067 136.058,249.183 135.693,249.326 135.605 C 249.468 135.517,249.664 134.847,249.761 134.116 C 249.858 133.386,250.041 132.724,250.168 132.645 C 250.296 132.566,250.400 132.216,250.400 131.867 C 250.400 131.517,250.507 131.165,250.638 131.084 C 250.770 131.003,250.940 130.486,251.016 129.935 C 251.092 129.384,251.298 128.333,251.473 127.600 C 251.647 126.867,251.783 126.030,251.774 125.742 C 251.765 125.453,251.896 125.131,252.065 125.026 C 252.236 124.921,252.377 124.175,252.383 123.351 C 252.388 122.535,252.479 121.867,252.584 121.867 C 252.819 121.867,252.815 122.029,252.922 108.667 C 252.969 102.653,252.915 97.613,252.801 97.467 C 252.686 97.320,252.501 96.420,252.388 95.467 C 252.099 93.020,252.092 92.978,251.912 92.533 C 251.823 92.313,251.704 91.833,251.649 91.467 C 251.594 91.100,251.480 90.620,251.396 90.400 C 251.312 90.180,251.187 89.520,251.117 88.933 C 250.947 87.505,250.840 87.096,250.587 86.909 C 250.469 86.823,250.355 86.463,250.333 86.109 C 250.310 85.756,250.190 85.395,250.064 85.308 C 249.939 85.221,249.767 84.471,249.681 83.642 C 249.595 82.812,249.422 82.133,249.296 82.133 C 249.170 82.133,249.067 81.653,249.067 81.067 C 249.067 80.480,248.947 80.000,248.800 80.000 C 248.653 80.000,248.533 79.647,248.533 79.216 C 248.533 78.784,248.410 78.355,248.260 78.262 C 248.109 78.169,248.003 77.952,248.025 77.780 C 248.113 77.064,247.982 76.533,247.718 76.533 C 247.562 76.533,247.494 76.629,247.567 76.746 C 247.639 76.863,247.611 77.100,247.504 77.273 C 247.392 77.455,247.092 76.868,246.796 75.888 C 246.250 74.078,245.682 73.434,245.142 74.012 M119.743 74.255 C 119.566 74.469,119.490 74.756,119.576 74.894 C 119.661 75.031,119.567 75.207,119.367 75.283 C 118.857 75.479,119.220 77.600,119.764 77.600 C 120.029 77.600,120.020 77.641,120.118 76.000 C 120.157 75.340,120.280 74.590,120.390 74.333 C 120.634 73.766,120.193 73.712,119.743 74.255 M118.565 77.481 C 118.461 77.751,118.513 77.828,118.715 77.703 C 118.921 77.576,118.967 77.660,118.854 77.956 C 118.743 78.246,118.819 78.400,119.075 78.400 C 119.290 78.400,119.467 78.527,119.467 78.682 C 119.467 78.838,119.347 78.891,119.200 78.800 C 119.053 78.709,118.931 78.852,118.929 79.118 C 118.926 79.513,118.881 79.531,118.681 79.214 C 118.489 78.910,118.399 78.978,118.260 79.532 C 118.070 80.287,118.290 80.899,118.667 80.667 C 118.793 80.589,118.973 80.649,119.067 80.800 C 119.160 80.951,119.349 81.006,119.485 80.922 C 119.819 80.716,119.803 78.475,119.467 78.267 C 119.320 78.176,119.200 77.869,119.200 77.584 C 119.200 76.965,118.788 76.898,118.565 77.481 M118.860 82.667 C 118.951 83.338,118.897 83.733,118.717 83.733 C 118.432 83.733,118.446 83.999,118.804 85.400 C 119.002 86.176,119.467 86.410,119.467 85.733 C 119.467 85.513,119.342 85.333,119.191 85.333 C 119.004 85.333,119.001 85.172,119.181 84.835 C 119.328 84.561,119.367 84.256,119.268 84.157 C 119.169 84.058,119.122 83.515,119.163 82.949 C 119.203 82.384,119.120 81.849,118.977 81.760 C 118.817 81.661,118.772 82.008,118.860 82.667 M117.741 82.122 C 117.644 82.277,117.641 82.642,117.733 82.931 C 117.928 83.547,118.643 83.093,118.543 82.416 C 118.472 81.929,117.973 81.746,117.741 82.122 M117.237 84.400 C 117.152 84.620,117.192 84.800,117.324 84.800 C 117.456 84.800,117.615 85.130,117.676 85.533 C 117.754 86.048,117.799 85.929,117.827 85.133 C 117.866 84.020,117.539 83.613,117.237 84.400 M116.985 87.104 C 116.700 87.388,116.766 87.786,117.067 87.600 C 117.213 87.509,117.343 87.652,117.354 87.918 C 117.366 88.183,117.434 88.255,117.507 88.077 C 117.672 87.670,117.235 86.854,116.985 87.104 " stroke="none" fill="#34acbc" fill-rule="evenodd"></path><path id="path2" d="M176.800 49.576 L 175.067 49.733 175.148 67.572 L 175.229 85.410 159.415 85.305 L 143.600 85.200 143.527 90.200 L 143.455 95.200 155.019 95.200 C 161.379 95.200,168.204 95.122,170.186 95.027 L 173.789 94.854 174.778 92.961 C 175.322 91.919,176.353 90.047,177.068 88.800 C 177.783 87.553,178.466 86.353,178.584 86.133 C 178.703 85.913,179.639 84.173,180.666 82.267 C 181.692 80.360,182.652 78.607,182.799 78.371 C 182.946 78.135,183.440 77.235,183.897 76.371 L 184.727 74.800 184.830 62.133 L 184.933 49.467 181.733 49.442 C 179.973 49.429,177.753 49.489,176.800 49.576 M154.465 85.777 C 154.281 85.851,154.198 86.022,154.281 86.156 C 154.364 86.290,154.327 86.400,154.199 86.400 C 154.071 86.400,153.801 86.820,153.600 87.333 C 153.399 87.847,153.151 88.267,153.050 88.267 C 152.949 88.267,152.598 88.897,152.271 89.667 C 151.943 90.437,151.394 91.442,151.049 91.900 C 150.705 92.359,150.498 92.809,150.589 92.900 C 150.681 92.992,150.624 93.067,150.462 93.067 C 150.181 93.067,149.852 93.743,149.893 94.237 C 149.935 94.753,149.083 94.925,146.467 94.929 L 143.733 94.933 143.733 90.267 L 143.733 85.600 149.267 85.621 C 152.310 85.633,154.649 85.703,154.465 85.777 M198.057 93.054 L 194.915 93.200 190.432 99.919 L 185.950 106.638 185.758 122.652 L 185.566 138.667 188.850 138.665 C 190.656 138.664,192.956 138.585,193.961 138.490 L 195.789 138.318 195.698 120.559 L 195.606 102.800 211.337 102.800 L 227.067 102.800 227.139 97.800 L 227.212 92.800 214.206 92.854 C 207.053 92.883,199.786 92.973,198.057 93.054 M226.933 97.907 L 226.933 102.747 224.333 102.575 C 222.903 102.480,220.443 102.402,218.867 102.401 C 216.232 102.400,216.000 102.359,216.000 101.895 C 216.000 101.618,216.180 101.321,216.400 101.237 C 216.620 101.152,216.800 100.912,216.800 100.704 C 216.800 100.495,216.997 100.248,217.238 100.156 C 217.479 100.063,217.606 99.917,217.521 99.832 C 217.435 99.746,217.658 99.360,218.016 98.974 C 218.374 98.588,218.667 98.074,218.667 97.831 C 218.667 97.589,218.847 97.321,219.067 97.237 C 219.287 97.152,219.467 96.912,219.467 96.704 C 219.467 96.495,219.664 96.248,219.905 96.156 C 220.146 96.063,220.273 95.917,220.187 95.832 C 220.102 95.746,220.324 95.360,220.682 94.974 C 221.040 94.588,221.333 94.071,221.333 93.825 C 221.333 93.194,221.682 93.111,224.467 93.088 L 226.933 93.067 226.933 97.907 M195.467 135.600 L 195.467 138.133 193.733 138.133 C 192.036 138.133,191.319 137.652,192.400 137.237 C 192.620 137.152,192.800 136.912,192.800 136.704 C 192.800 136.495,192.997 136.248,193.238 136.156 C 193.479 136.063,193.606 135.917,193.521 135.832 C 193.435 135.746,193.658 135.360,194.016 134.974 C 194.374 134.588,194.667 134.071,194.667 133.825 C 194.667 133.454,194.861 133.258,195.400 133.088 C 195.437 133.076,195.467 134.207,195.467 135.600 " stroke="none" fill="#db529a" fill-rule="evenodd"></path><path id="path3" d="M244.267 76.589 C 244.267 76.703,244.507 76.945,244.800 77.129 C 245.093 77.312,245.333 77.560,245.333 77.680 C 245.333 77.800,245.183 77.808,245.000 77.698 C 244.808 77.583,244.837 77.707,245.067 77.990 C 245.577 78.618,245.797 77.933,245.352 77.102 C 245.145 76.714,245.158 76.541,245.402 76.441 C 245.584 76.367,245.403 76.324,245.000 76.345 C 244.597 76.366,244.267 76.476,244.267 76.589 M245.109 80.362 C 245.076 81.177,245.150 81.358,245.467 81.237 C 245.687 81.152,245.867 81.200,245.867 81.342 C 245.867 81.484,245.987 81.600,246.133 81.600 C 246.280 81.600,246.400 81.356,246.400 81.057 C 246.400 80.603,246.316 80.560,245.884 80.791 C 245.429 81.034,245.354 80.964,245.260 80.200 C 245.157 79.370,245.150 79.377,245.109 80.362 M117.098 85.112 C 117.054 85.741,117.342 86.400,117.661 86.400 C 117.844 86.400,117.844 86.292,117.661 86.067 C 117.513 85.883,117.332 85.493,117.260 85.200 C 117.163 84.806,117.120 84.783,117.098 85.112 M246.469 86.546 C 246.259 86.774,246.236 86.965,246.405 87.069 C 246.551 87.160,246.744 87.041,246.835 86.805 C 247.055 86.231,246.876 86.104,246.469 86.546 M246.933 90.800 C 246.933 91.020,247.053 91.200,247.200 91.200 C 247.347 91.200,247.467 91.020,247.467 90.800 C 247.467 90.580,247.347 90.400,247.200 90.400 C 247.053 90.400,246.933 90.580,246.933 90.800 M121.986 95.223 C 121.887 95.383,121.940 95.647,122.103 95.810 C 122.321 96.028,122.400 95.951,122.400 95.520 C 122.400 94.876,122.261 94.777,121.986 95.223 M122.408 100.533 C 122.408 100.753,122.524 101.113,122.667 101.333 C 122.896 101.689,122.925 101.689,122.925 101.333 C 122.925 101.113,122.809 100.753,122.667 100.533 C 122.437 100.178,122.408 100.178,122.408 100.533 M123.219 105.784 C 123.279 106.476,123.696 107.064,123.715 106.482 C 123.725 106.161,123.613 105.824,123.467 105.733 C 123.320 105.643,123.208 105.666,123.219 105.784 M252.691 119.510 C 252.586 120.167,252.626 120.733,252.790 120.897 C 252.981 121.088,253.067 120.745,253.067 119.787 C 253.067 118.113,252.930 118.012,252.691 119.510 M128.399 121.466 C 128.594 122.342,128.727 122.561,128.938 122.351 C 129.014 122.275,128.884 121.865,128.648 121.440 L 128.220 120.667 128.399 121.466 M227.012 139.889 C 226.248 140.683,225.712 141.333,225.821 141.333 C 225.929 141.333,226.670 140.673,227.467 139.867 C 228.263 139.060,228.799 138.410,228.658 138.422 C 228.516 138.434,227.775 139.094,227.012 139.889 M179.467 196.771 L 179.467 199.409 176.354 199.508 C 174.193 199.577,173.209 199.707,173.132 199.937 C 173.072 200.118,172.904 200.267,172.759 200.267 C 172.258 200.267,171.700 201.065,171.549 201.997 C 171.465 202.512,171.293 202.933,171.165 202.933 C 171.038 202.933,170.933 204.733,170.933 206.933 C 170.933 209.133,171.040 210.933,171.171 210.933 C 171.302 210.933,171.488 211.248,171.584 211.632 C 171.777 212.399,172.334 213.067,172.781 213.067 C 172.938 213.067,173.067 213.172,173.067 213.300 C 173.067 213.756,174.853 213.879,178.867 213.700 L 182.933 213.519 182.933 203.826 L 182.933 194.133 181.200 194.133 L 179.467 194.133 179.467 196.771 M223.467 203.843 L 223.467 213.552 225.783 213.745 C 228.462 213.968,232.356 213.731,232.488 213.337 C 232.537 213.188,232.805 213.067,233.084 213.067 C 233.401 213.067,233.652 212.818,233.757 212.400 C 233.849 212.033,234.031 211.733,234.162 211.733 C 234.293 211.733,234.400 211.563,234.400 211.356 C 234.400 211.148,234.550 210.928,234.733 210.867 C 234.982 210.784,235.067 209.621,235.067 206.267 C 235.067 202.913,234.982 201.750,234.733 201.667 C 234.550 201.606,234.400 201.437,234.400 201.292 C 234.400 201.147,234.231 200.859,234.024 200.652 C 233.817 200.445,233.599 200.131,233.540 199.954 C 233.467 199.736,232.395 199.596,230.183 199.517 L 226.933 199.401 226.933 196.767 L 226.933 194.133 225.200 194.133 L 223.467 194.133 223.467 203.843 M135.733 204.000 L 135.733 213.600 137.467 213.600 L 139.200 213.600 139.235 207.267 C 139.263 202.185,139.323 201.210,139.539 202.333 C 139.687 203.103,139.911 203.733,140.038 203.733 C 140.164 203.733,140.267 204.033,140.267 204.400 C 140.267 204.767,140.375 205.067,140.508 205.067 C 140.641 205.067,140.832 205.667,140.933 206.400 C 141.034 207.133,141.225 207.733,141.358 207.733 C 141.491 207.733,141.600 208.033,141.600 208.400 C 141.600 208.767,141.709 209.067,141.842 209.067 C 141.975 209.067,142.166 209.667,142.267 210.400 C 142.368 211.133,142.559 211.733,142.692 211.733 C 142.825 211.733,142.933 211.862,142.933 212.019 C 142.933 212.710,143.740 213.067,145.302 213.067 L 146.909 213.067 147.084 212.133 C 147.181 211.620,147.366 211.200,147.496 211.200 C 147.627 211.200,147.733 210.900,147.733 210.533 C 147.733 210.167,147.842 209.867,147.975 209.867 C 148.108 209.867,148.299 209.267,148.400 208.533 C 148.501 207.800,148.692 207.200,148.825 207.200 C 148.958 207.200,149.067 206.900,149.067 206.533 C 149.067 206.167,149.175 205.867,149.308 205.867 C 149.441 205.867,149.632 205.267,149.733 204.533 C 149.834 203.800,150.025 203.200,150.158 203.200 C 150.291 203.200,150.400 202.900,150.400 202.533 C 150.400 202.167,150.520 201.867,150.667 201.867 C 150.836 201.867,150.933 204.000,150.933 207.733 L 150.933 213.600 152.667 213.600 L 154.400 213.600 154.400 204.000 L 154.400 194.400 151.758 194.400 L 149.117 194.400 148.933 195.733 C 148.832 196.467,148.641 197.067,148.508 197.067 C 148.375 197.067,148.267 197.367,148.267 197.733 C 148.267 198.100,148.158 198.400,148.025 198.400 C 147.892 198.400,147.701 199.000,147.600 199.733 C 147.499 200.467,147.308 201.067,147.175 201.067 C 147.042 201.067,146.933 201.367,146.933 201.733 C 146.933 202.100,146.825 202.400,146.692 202.400 C 146.559 202.400,146.368 203.000,146.267 203.733 C 146.166 204.467,145.975 205.067,145.842 205.067 C 145.709 205.067,145.600 205.315,145.600 205.619 C 145.600 206.112,145.044 206.933,144.711 206.933 C 144.641 206.933,144.501 206.333,144.400 205.600 C 144.299 204.867,144.108 204.267,143.975 204.267 C 143.842 204.267,143.733 203.967,143.733 203.600 C 143.733 203.233,143.625 202.933,143.492 202.933 C 143.359 202.933,143.168 202.333,143.067 201.600 C 142.966 200.867,142.775 200.267,142.642 200.267 C 142.509 200.267,142.400 199.967,142.400 199.600 C 142.400 199.233,142.291 198.933,142.158 198.933 C 142.025 198.933,141.834 198.333,141.733 197.600 C 141.632 196.867,141.441 196.267,141.308 196.267 C 141.175 196.267,141.067 196.018,141.067 195.714 C 141.067 194.664,140.455 194.400,138.019 194.400 L 135.733 194.400 135.733 204.000 M184.958 196.067 C 185.060 196.983,185.246 197.773,185.371 197.822 C 185.497 197.871,185.600 198.441,185.600 199.089 C 185.600 199.737,185.708 200.267,185.839 200.267 C 185.970 200.267,186.163 201.227,186.267 202.400 C 186.371 203.573,186.563 204.533,186.694 204.533 C 186.826 204.533,186.933 205.073,186.933 205.733 C 186.933 206.393,187.041 206.933,187.172 206.933 C 187.304 206.933,187.496 207.893,187.600 209.067 C 187.704 210.240,187.896 211.200,188.028 211.200 C 188.159 211.200,188.267 211.740,188.267 212.400 L 188.267 213.600 190.905 213.600 C 193.775 213.600,193.867 213.550,193.867 211.978 C 193.867 211.550,193.987 211.200,194.133 211.200 C 194.280 211.200,194.400 210.720,194.400 210.133 C 194.400 209.547,194.510 209.067,194.644 209.067 C 194.778 209.067,194.972 208.167,195.075 207.067 C 195.178 205.967,195.369 205.067,195.498 205.067 C 195.627 205.067,195.733 204.647,195.733 204.133 C 195.733 203.620,195.853 203.200,196.000 203.200 C 196.147 203.200,196.267 203.020,196.267 202.800 C 196.267 201.505,196.768 202.724,196.925 204.400 C 197.028 205.500,197.222 206.400,197.356 206.400 C 197.490 206.400,197.600 206.880,197.600 207.467 C 197.600 208.053,197.710 208.533,197.844 208.533 C 197.978 208.533,198.172 209.433,198.275 210.533 C 198.378 211.633,198.569 212.533,198.698 212.533 C 198.827 212.533,198.933 212.773,198.933 213.067 C 198.933 213.564,199.111 213.600,201.565 213.600 L 204.197 213.600 204.362 212.600 C 204.453 212.050,204.529 211.210,204.530 210.733 C 204.532 210.257,204.653 209.867,204.800 209.867 C 204.947 209.867,205.067 209.387,205.067 208.800 C 205.067 208.213,205.176 207.733,205.309 207.733 C 205.443 207.733,205.637 206.713,205.741 205.467 C 205.845 204.220,206.036 203.200,206.165 203.200 C 206.294 203.200,206.400 202.720,206.400 202.133 C 206.400 201.547,206.509 201.067,206.643 201.067 C 206.776 201.067,206.970 200.047,207.074 198.800 C 207.178 197.553,207.369 196.533,207.498 196.533 C 207.628 196.533,207.733 196.053,207.733 195.467 L 207.733 194.400 206.000 194.400 C 204.444 194.400,204.267 194.455,204.267 194.933 C 204.267 195.227,204.156 195.467,204.020 195.467 C 203.884 195.467,203.689 196.547,203.586 197.867 C 203.482 199.187,203.293 200.267,203.166 200.267 C 203.038 200.267,202.933 200.747,202.933 201.333 C 202.933 201.920,202.828 202.400,202.698 202.400 C 202.569 202.400,202.378 203.420,202.274 204.667 C 202.170 205.913,201.976 206.933,201.843 206.933 C 201.709 206.933,201.600 207.233,201.600 207.600 C 201.600 207.967,201.480 208.267,201.333 208.267 C 201.187 208.267,201.067 207.847,201.067 207.333 C 201.067 206.820,200.961 206.400,200.831 206.400 C 200.702 206.400,200.512 205.500,200.409 204.400 C 200.305 203.300,200.111 202.400,199.977 202.400 C 199.843 202.400,199.733 202.040,199.733 201.600 C 199.733 201.160,199.631 200.800,199.505 200.800 C 199.379 200.800,199.196 199.930,199.098 198.867 C 198.999 197.803,198.802 196.893,198.659 196.844 C 198.517 196.796,198.400 196.346,198.400 195.844 L 198.400 194.933 196.429 194.933 C 194.324 194.933,194.133 195.057,194.133 196.422 C 194.133 196.776,194.013 197.067,193.867 197.067 C 193.720 197.067,193.600 197.597,193.600 198.244 C 193.600 198.892,193.483 199.462,193.341 199.511 C 193.198 199.560,193.001 200.470,192.902 201.533 C 192.804 202.597,192.621 203.467,192.495 203.467 C 192.369 203.467,192.267 203.827,192.267 204.267 C 192.267 204.707,192.157 205.067,192.023 205.067 C 191.889 205.067,191.695 205.965,191.592 207.063 C 191.392 209.194,190.933 209.557,190.933 207.584 C 190.933 206.933,190.813 206.400,190.667 206.400 C 190.520 206.400,190.400 205.800,190.400 205.067 C 190.400 204.333,190.292 203.733,190.161 203.733 C 190.030 203.733,189.837 202.773,189.733 201.600 C 189.629 200.427,189.437 199.467,189.306 199.467 C 189.174 199.467,189.067 198.867,189.067 198.133 C 189.067 197.400,188.947 196.800,188.800 196.800 C 188.653 196.800,188.533 196.260,188.533 195.600 L 188.533 194.400 186.653 194.400 L 184.774 194.400 184.958 196.067 M160.017 199.660 C 159.270 199.954,157.600 201.833,157.600 202.379 C 157.600 202.684,157.480 202.933,157.333 202.933 C 157.167 202.933,157.067 204.444,157.067 206.933 C 157.067 209.422,157.167 210.933,157.333 210.933 C 157.480 210.933,157.600 211.063,157.600 211.221 C 157.600 211.379,158.070 211.974,158.644 212.542 C 159.931 213.816,161.057 214.014,165.454 213.740 L 168.533 213.547 168.533 212.240 L 168.533 210.933 165.343 210.933 C 161.702 210.933,160.533 210.352,160.533 208.542 L 160.533 207.733 164.800 207.733 L 169.067 207.733 169.067 205.600 C 169.067 204.427,168.960 203.467,168.830 203.467 C 168.700 203.467,168.514 202.933,168.416 202.280 C 168.291 201.448,168.087 201.046,167.733 200.933 C 167.455 200.845,167.158 200.553,167.072 200.285 C 166.842 199.558,161.480 199.083,160.017 199.660 M212.017 199.660 C 211.270 199.954,209.600 201.833,209.600 202.379 C 209.600 202.684,209.480 202.933,209.333 202.933 C 209.167 202.933,209.067 204.444,209.067 206.933 C 209.067 209.422,209.167 210.933,209.333 210.933 C 209.480 210.933,209.600 211.063,209.600 211.221 C 209.600 211.379,210.070 211.974,210.644 212.542 C 211.931 213.816,213.057 214.014,217.454 213.740 L 220.533 213.547 220.533 212.240 L 220.533 210.933 217.343 210.933 C 213.702 210.933,212.533 210.352,212.533 208.542 L 212.533 207.733 216.800 207.733 L 221.067 207.733 221.067 205.600 C 221.067 204.427,220.960 203.467,220.830 203.467 C 220.700 203.467,220.514 202.933,220.416 202.280 C 220.291 201.448,220.087 201.046,219.733 200.933 C 219.455 200.845,219.158 200.553,219.072 200.285 C 218.842 199.558,213.480 199.083,212.017 199.660 M163.733 202.133 C 163.733 202.280,163.968 202.400,164.255 202.400 C 164.639 202.400,164.822 202.645,164.951 203.333 C 165.047 203.847,165.233 204.267,165.363 204.267 C 165.493 204.267,165.600 204.447,165.600 204.667 C 165.600 204.994,165.141 205.067,163.067 205.067 C 160.542 205.067,160.533 205.064,160.533 204.400 C 160.533 204.033,160.653 203.733,160.800 203.733 C 160.947 203.733,161.067 203.605,161.067 203.448 C 161.067 203.290,161.238 202.990,161.448 202.781 C 161.657 202.571,161.957 202.400,162.114 202.400 C 162.271 202.400,162.400 202.280,162.400 202.133 C 162.400 201.987,162.700 201.867,163.067 201.867 C 163.433 201.867,163.733 201.987,163.733 202.133 M178.133 202.133 C 178.133 202.280,178.433 202.400,178.800 202.400 L 179.467 202.400 179.467 206.238 C 179.467 210.320,179.441 210.400,178.112 210.400 C 177.830 210.400,177.600 210.520,177.600 210.667 C 177.600 211.272,175.948 210.922,175.179 210.154 C 174.369 209.344,173.927 204.267,174.667 204.267 C 174.813 204.267,174.933 204.053,174.933 203.793 C 174.933 203.305,175.801 202.400,176.270 202.400 C 176.415 202.400,176.533 202.280,176.533 202.133 C 176.533 201.987,176.893 201.867,177.333 201.867 C 177.773 201.867,178.133 201.987,178.133 202.133 M215.733 202.133 C 215.733 202.280,215.968 202.400,216.255 202.400 C 216.639 202.400,216.822 202.645,216.951 203.333 C 217.047 203.847,217.233 204.267,217.363 204.267 C 217.493 204.267,217.600 204.447,217.600 204.667 C 217.600 204.994,217.141 205.067,215.067 205.067 C 212.542 205.067,212.533 205.064,212.533 204.400 C 212.533 204.033,212.653 203.733,212.800 203.733 C 212.947 203.733,213.067 203.605,213.067 203.448 C 213.067 203.290,213.238 202.990,213.448 202.781 C 213.657 202.571,213.957 202.400,214.114 202.400 C 214.271 202.400,214.400 202.280,214.400 202.133 C 214.400 201.987,214.700 201.867,215.067 201.867 C 215.433 201.867,215.733 201.987,215.733 202.133 M229.600 202.133 C 229.600 202.280,229.729 202.400,229.886 202.400 C 230.043 202.400,230.341 202.569,230.548 202.776 C 230.755 202.983,231.076 203.203,231.262 203.265 C 231.507 203.347,231.600 204.177,231.600 206.299 L 231.600 209.221 230.724 210.077 C 229.954 210.830,229.672 210.933,228.391 210.933 L 226.933 210.933 226.933 207.088 C 226.933 202.535,226.969 202.400,228.162 202.400 C 228.660 202.400,229.067 202.280,229.067 202.133 C 229.067 201.987,229.187 201.867,229.333 201.867 C 229.480 201.867,229.600 201.987,229.600 202.133 " stroke="none" fill="#3c6cac" fill-rule="evenodd"></path><path id="path4" d="M169.067 65.067 L 169.067 82.400 152.400 82.400 L 135.733 82.400 135.733 95.733 L 135.733 109.067 152.667 109.067 L 169.600 109.067 169.600 126.000 L 169.600 142.933 184.667 142.933 L 199.733 142.933 199.733 125.600 L 199.733 108.267 215.733 108.267 L 231.733 108.267 231.733 94.933 L 231.733 81.600 215.467 81.600 L 199.200 81.600 199.200 64.667 L 199.200 47.733 184.133 47.733 L 169.067 47.733 169.067 65.067 M184.830 62.133 L 184.727 74.800 183.897 76.371 C 183.440 77.235,182.946 78.135,182.799 78.371 C 182.652 78.607,181.692 80.360,180.666 82.267 C 179.639 84.173,178.703 85.913,178.584 86.133 C 178.466 86.353,177.783 87.553,177.068 88.800 C 176.353 90.047,175.322 91.919,174.778 92.961 L 173.789 94.854 170.186 95.027 C 168.204 95.122,161.379 95.200,155.019 95.200 L 143.455 95.200 143.527 90.200 L 143.600 85.200 159.415 85.305 L 175.229 85.410 175.148 67.572 L 175.067 49.733 176.800 49.576 C 177.753 49.489,179.973 49.429,181.733 49.442 L 184.933 49.467 184.830 62.133 M227.139 97.800 L 227.067 102.800 211.337 102.800 L 195.606 102.800 195.698 120.559 L 195.789 138.318 193.961 138.490 C 192.956 138.585,190.656 138.664,188.850 138.665 L 185.566 138.667 185.758 122.652 L 185.950 106.638 190.432 99.919 L 194.915 93.200 198.057 93.054 C 199.786 92.973,207.053 92.883,214.206 92.854 L 227.212 92.800 227.139 97.800 " stroke="none" fill="#cc1c7c" fill-rule="evenodd"></path></g></svg>