<svg xmlns="http://www.w3.org/2000/svg" xmlns:xlink="http://www.w3.org/1999/xlink" width="30" height="30" viewBox="0 0 30 30">
    <defs>
        <path id="a" d="M17 24v1.89h-.998v1.613a.495.495 0 0 1-.5.497.495.495 0 0 1-.49-.407l-.009-.09V25.89H14V24h3zM6 6.193c0-.418.309-.764.681-.764h7.779V2.58c0-.323.229-.579.516-.579.288 0 .516.256.516.579v2.85h7.779c.394 0 .702.346.729.764V22.296c0 .353-.26.65-.59.698l-.092.006H6.703a.695.695 0 0 1-.675-.61l-.007-.094H6V8zm16.743 14.866h-2.61c-.27 0-.495.236-.516.533 0 .264.181.48.423.525l.094.009h2.61a.522.522 0 0 0 .516-.534.522.522 0 0 0-.517-.533zm0-1.985h-1.512a.522.522 0 0 0-.517.533c0 .264.181.48.423.525l.094.009h1.512a.522.522 0 0 0 .517-.534.548.548 0 0 0-.517-.533zm0-1.968h-2.61c-.27 0-.495.236-.516.533 0 .264.181.48.423.525l.094.008h2.61a.522.522 0 0 0 .516-.533.522.522 0 0 0-.517-.533zm0-1.985h-1.512a.522.522 0 0 0-.517.533c0 .264.181.48.423.525l.094.008h1.512a.522.522 0 0 0 .517-.533.522.522 0 0 0-.517-.533zm0-1.99h-2.61c-.27 0-.495.236-.516.532 0 .264.181.48.423.525l.094.009h2.61a.522.522 0 0 0 .516-.534.522.522 0 0 0-.517-.533zm0-1.986h-1.512a.522.522 0 0 0-.517.534c0 .263.181.48.423.524l.094.009h1.512a.522.522 0 0 0 .517-.533.552.552 0 0 0-.517-.534zm0-1.963h-2.61c-.27 0-.495.231-.516.534 0 .263.181.48.423.524l.094.009h2.61a.522.522 0 0 0 .516-.533.522.522 0 0 0-.517-.534z"/>
    </defs>
    <g fill="none" fill-rule="evenodd">
        <mask id="b" fill="#fff">
            <use xlink:href="#a"/>
        </mask>
        <use fill="rgb(92, 184, 186)" fill-rule="nonzero" xlink:href="#a"/>
        <g fill="rgb(92, 184, 186)" mask="url(#b)">
            <path d="M2 2h26v26H2z"/>
        </g>
    </g>
</svg>
