<svg xmlns="http://www.w3.org/2000/svg" xmlns:xlink="http://www.w3.org/1999/xlink" width="30" height="30"
     viewBox="0 0 30 30">
    <defs>
        <path id="a"
              d="M9.867 26a8.844 8.844 0 0 0 5.332-1.788A8.841 8.841 0 0 0 20.529 26c4.89 0 8.868-3.954 8.868-8.815 0-4.862-3.977-8.816-8.867-8.816a8.844 8.844 0 0 0-5.331 1.788 8.842 8.842 0 0 0-5.332-1.788C4.977 8.369 1 12.323 1 17.185 1 22.045 4.977 26 9.867 26zM15.2 13.674a6.415 6.415 0 0 1 1.092 3.588 6.415 6.415 0 0 1-1.092 3.59 6.415 6.415 0 0 1-1.093-3.59c0-1.327.404-2.562 1.093-3.588zm5.295-2.809c3.533 0 6.407 2.87 6.407 6.398 0 3.527-2.874 6.397-6.407 6.397a6.376 6.376 0 0 1-3.58-1.095 8.762 8.762 0 0 0 1.79-5.302 8.763 8.763 0 0 0-1.79-5.303 6.375 6.375 0 0 1 3.58-1.095zm-10.591 0c1.324 0 2.557.404 3.58 1.095a8.763 8.763 0 0 0-1.79 5.303c0 1.99.671 3.824 1.79 5.302a6.376 6.376 0 0 1-3.58 1.095c-3.533 0-6.407-2.87-6.407-6.397 0-3.528 2.874-6.398 6.407-6.398zm5.067-6.081s1.362-1.461 2.55-.394c1.189 1.067.149 3.536-2.55 4.603l-.01-.01c-2.7-1.067-3.74-3.526-2.551-4.593 1.189-1.067 2.55.394 2.55.394h.01z"/>
    </defs>
    <g fill="none" fill-rule="evenodd">
        <mask id="b" fill="#fff">
            <use xlink:href="#a"/>
        </mask>
        <use fill="rgb(92, 184, 186)" fill-rule="nonzero" xlink:href="#a"/>
        <g fill="rgb(92, 184, 186)" mask="url(#b)">
            <path d="M0 2h30v26H0z"/>
        </g>
    </g>
</svg>
