<svg xmlns="http://www.w3.org/2000/svg" xmlns:xlink="http://www.w3.org/1999/xlink" width="36" height="36" viewBox="0 0 36 36">
    <defs>
        <circle id="fe64vmveka" cx="18" cy="18" r="18"/>
    </defs>
    <g fill="none" fill-rule="evenodd">
        <g>
            <g transform="translate(-257 -398) translate(257 398)">
                <mask id="ivl41wic5b" fill="#fff">
                    <use xlink:href="#fe64vmveka"/>
                </mask>
                <circle cx="18" cy="18" r="17.5" stroke="#D1D1D3"/>
                <g fill="#D1D1D3" mask="url(#ivl41wic5b)">
                    <path d="M16.2 2.948c-.596.271-1.236.455-1.909.536.686-.422 1.213-1.09 1.462-1.885-.643.39-1.354.675-2.11.827-.607-.662-1.471-1.076-2.428-1.076-1.835 0-3.323 1.526-3.323 3.408 0 .267.03.527.086.776-2.762-.142-5.211-1.499-6.85-3.56-.286.503-.45 1.088-.45 1.713 0 1.183.586 2.225 1.478 2.837-.545-.018-1.057-.17-1.505-.426v.042c0 1.652 1.145 3.03 2.665 3.343-.278.077-.572.12-.875.12-.215 0-.423-.022-.625-.062.422 1.354 1.65 2.339 3.104 2.367-1.137.914-2.57 1.46-4.127 1.46-.268 0-.533-.017-.793-.048 1.47.966 3.218 1.53 5.095 1.53 6.113 0 9.456-5.193 9.456-9.697 0-.147-.004-.295-.01-.441.65-.48 1.213-1.08 1.659-1.764z" transform="translate(9.9 9.9)"/>
                </g>
            </g>
        </g>
    </g>
</svg>
