<!-- Generated by IcoMoon.io -->
<svg version="1.1" xmlns="http://www.w3.org/2000/svg" width="32" height="32" viewBox="0 0 32 32">
<title>user</title>
<path fill="#5cb8ba" d="M23.899 16.782c0.212-0.102 0.394-0.23 0.552-0.383l-0 0c0.747-0.747 0.729-1.911 0.711-2.942l-0.009-2.107c-0.087-0.926-0.596-1.718-1.331-2.189l-0.012-0.007v-2.756c0-2.88-0.693-4.756-2.107-5.716-2.133-1.449-5.147-0.329-7.804 0.658-0.48 0.169-0.942 0.347-1.387 0.498-2.533 0.089-4.213 2.098-4.213 5.058v1.938c-1.342 0.462-1.342 1.849-1.342 2.516v1.644c0 0.204-0.009 0.409-0.018 0.613-0.036 1.022-0.071 2.080 0.64 2.8 0.149 0.148 0.323 0.273 0.513 0.368l0.012 0.005c0.56 3.369 4.524 5.973 7.849 5.973h0.249c3.262 0 7.147-2.604 7.698-5.973zM16.201 20.711h-0.249c-2.551 0-5.84-2.302-5.84-4.747-0.003-0.532-0.434-0.962-0.966-0.962-0.020 0-0.039 0.001-0.059 0.002l0.003-0c-0.062-0.263-0.097-0.566-0.097-0.876 0-0.161 0.010-0.32 0.028-0.476l-0.002 0.019c0.009-0.222 0.018-0.453 0.018-0.676v-1.644c0.006-0.049 0.009-0.106 0.009-0.164 0-0.154-0.023-0.302-0.065-0.442l0.003 0.011c0.086-0.024 0.185-0.038 0.287-0.038 0.024 0 0.048 0.001 0.071 0.002l-0.003-0c0.001 0 0.002 0 0.003 0 0.568 0 1.029-0.456 1.037-1.021v-2.801c0-0.507 0.107-3.022 2.311-3.022 0.001 0 0.002 0 0.003 0 0.12 0 0.235-0.020 0.342-0.056l-0.008 0.002c0.516-0.169 1.049-0.373 1.6-0.569 1.341-0.609 2.897-1.040 4.529-1.212l0.066-0.006c0.037-0.002 0.080-0.003 0.123-0.003 0.435 0 0.84 0.124 1.184 0.338l-0.009-0.006c0.996 0.676 1.209 2.569 1.209 4.036v3.298c0.003 0.38 0.211 0.711 0.519 0.886l0.005 0.003c0.343 0.176 0.621 0.437 0.813 0.755l0.005 0.009 0.009 2.142c0.014 0.114 0.022 0.247 0.022 0.381 0 0.382-0.063 0.749-0.18 1.091l0.007-0.024c-0.004-0-0.009-0-0.013-0-0.565 0-1.024 0.457-1.027 1.022v0c0 2.507-3.182 4.747-5.689 4.747zM9.508 21.538c-5.6 0-9.511 3.884-9.511 9.431 0 0.574 0.466 1.040 1.040 1.040s1.040-0.466 1.040-1.040v0c-0.004-0.091-0.007-0.197-0.007-0.305 0-3.916 3.175-7.091 7.091-7.091 0.122 0 0.243 0.003 0.364 0.009l-0.017-0.001c0.565 0 1.022-0.458 1.022-1.022s-0.458-1.022-1.022-1.022v0zM22.485 21.369c-0.565 0-1.022 0.458-1.022 1.022s0.458 1.022 1.022 1.022v0c4.373 0 7.431 3.102 7.431 7.547 0 0.574 0.466 1.040 1.040 1.040s1.040-0.466 1.040-1.040v0c0.004-0.106 0.007-0.231 0.007-0.356 0-5.103-4.136-9.239-9.239-9.239-0.098 0-0.196 0.002-0.293 0.005l0.014-0z"></path>
</svg>
