<svg xmlns="http://www.w3.org/2000/svg" xmlns:xlink="http://www.w3.org/1999/xlink" width="36" height="36" viewBox="0 0 36 36">
    <defs>
        <circle id="m1es657z0a" cx="18" cy="18" r="18"/>
    </defs>
    <g fill="none" fill-rule="evenodd">
        <g>
            <g transform="translate(-211 -398) translate(211 398)">
                <mask id="tyq14dvxfb" fill="#fff">
                    <use xlink:href="#m1es657z0a"/>
                </mask>
                <circle cx="18" cy="18" r="17.5" stroke="#D1D1D3"/>
                <g fill="#D1D1D3" mask="url(#tyq14dvxfb)">
                    <path d="M16.2 12.15c0 1.114-.911 2.025-2.025 2.025H2.025C.911 14.175 0 13.264 0 12.15v-8.1c0-1.114.911-2.025 2.025-2.025h12.15c1.114 0 2.025.911 2.025 2.025v8.1zM6.945 5.263c-.48-.261-.87-.02-.87.53v4.604c0 .554.399.787.87.53l4.335-2.354c.48-.261.471-.69 0-.947L6.945 5.263z" transform="translate(9.9 9.9)"/>
                </g>
            </g>
        </g>
    </g>
</svg>
